<?xml version="1.0" encoding="utf-8"?>
<!-- Generator: Adobe Illustrator 23.0.1, SVG Export Plug-In . SVG Version: 6.00 Build 0)  -->
<svg version="1.1" id="레이어_1" xmlns="http://www.w3.org/2000/svg" xmlns:xlink="http://www.w3.org/1999/xlink" x="0px"
	 y="0px" viewBox="0 0 341.05 38" style="enable-background:new 0 0 341.05 38;" xml:space="preserve">
<style type="text/css">
	.st0{fill:#FFCD00;}
	.st1{fill:#003CA6;}
</style>
<g>
	<path class="st0" d="M4.6,12.12c0-0.19,0.34-1.29,0.65-2.28c0.08-0.23-0.04-0.42-0.3-0.19c-0.68,0.8-1.48,1.71-1.67,1.75
		C2.2,12.05,1.1,10.34,2.28,9.62l2.17-0.65C4.83,8.86,4.6,8.63,4.37,8.59C3.42,8.36,2.39,8.14,2.2,8.02C1.1,7.38,2.09,5.55,3.23,6.2
		c0.11,0.15,0.8,0.84,1.48,1.48C4.9,7.87,5.28,7.95,5.13,7.45C4.86,6.54,4.6,5.51,4.6,5.36c0-1.25,2.05-1.33,2.05,0
		c0,0.15-0.27,1.18-0.49,2.09C6.04,7.95,6.38,7.95,6.57,7.72l1.6-1.52c1.14-0.65,2.13,1.18,0.99,1.82C9,8.14,7.94,8.36,6.99,8.59
		c-0.27,0.04-0.46,0.3,0,0.38c0.91,0.3,1.94,0.57,2.13,0.65c1.18,0.72,0.08,2.43-0.99,1.79c-0.19-0.04-1.03-0.91-1.71-1.71
		C6.35,9.62,6.04,9.43,6.08,9.84c0.27,0.99,0.57,2.09,0.57,2.28C6.65,13.45,4.6,13.42,4.6,12.12z"/>
	<path class="st1" d="M22.27,2.89v3.8c0,1.22-1.03,1.98-2.17,1.98h-2.93c-1.03,0-1.33,0.8-1.33,1.44v0.23
		c0,0.72,0.23,1.63,1.48,1.63h4.1c0.76,0,1.29,0.46,1.29,1.18c0,0.76-0.53,1.22-1.29,1.22h-6.04c-1.14,0-2.09-0.84-2.09-2.13V8.55
		c0-1.29,0.99-2.17,2.28-2.17h2.77c1.03,0,1.33-0.72,1.33-1.37V4.64c0-0.72-0.27-1.48-1.48-1.48h-3.53c-0.72,0-1.25-0.46-1.25-1.18
		c0-0.76,0.53-1.22,1.25-1.22h5.43C21.35,0.76,22.27,1.49,22.27,2.89z M24.96,5.44c0-0.76,0.53-1.25,1.29-1.25
		c0.91,0,1.25,0.57,1.25,1.25v2.2c0,0.68,0.08,1.25,1.14,1.25h1.29c0.87,0,1.22,0.61,1.22,1.18c0,0.68-0.46,1.14-1.22,1.14h-1.29
		c-0.95,0-1.14,0.49-1.14,1.18v3.76c0,0.72-0.53,1.29-1.25,1.29c-0.72,0-1.29-0.57-1.29-1.29V5.44z"/>
	<path class="st1" d="M37.85,4.72c2.74,0,5.02,1.98,5.02,4.75c0,2.77-2.28,4.75-5.02,4.75c-2.7,0-4.98-1.98-4.98-4.75
		C32.87,6.69,35.15,4.72,37.85,4.72z M37.85,11.86c1.37,0,2.47-0.95,2.47-2.39s-1.1-2.39-2.47-2.39c-1.33,0-2.47,0.95-2.47,2.39
		S36.52,11.86,37.85,11.86z M45.52,5.55c0-0.76,0.53-1.25,1.29-1.25c1.14,0.04,1.25,0.99,1.25,1.25v10.52
		c0,0.72-0.53,1.29-1.25,1.29c-0.72,0-1.29-0.57-1.29-1.29V5.55z"/>
	<path class="st1" d="M52.67,19.27c-0.72,0-1.18-0.46-1.18-1.18c0-0.72,0.46-1.22,1.18-1.22h10.71c0.68,0,1.22,0.49,1.22,1.22
		c0,0.72-0.49,1.18-1.22,1.18H52.67z M53.05,14.25c-0.72,0-1.18-0.53-1.18-1.29c0-0.72,0.46-1.18,1.18-1.18h0.8
		c0.65,0,0.8-0.42,0.8-0.87V8.55c0-0.61-0.11-0.91-0.8-0.91h-0.68c-0.72,0-1.22-0.49-1.22-1.22c0-0.72,0.49-1.25,1.22-1.25h10.14
		c0.72,0,1.25,0.53,1.25,1.25c0,0.72-0.53,1.22-1.25,1.22h-0.65c-0.42,0-0.72,0.23-0.72,0.87v2.39c0,0.57,0.19,0.87,0.72,0.87h0.8
		c0.65,0,1.22,0.46,1.22,1.18c0,0.76-0.53,1.29-1.25,1.29H53.05z M59.66,8.63c0-0.68-0.19-0.99-0.95-0.99h-0.84
		c-0.76,0-0.95,0.34-0.95,0.95v2.36c0,0.49,0.19,0.87,0.95,0.87h0.84c0.8,0,0.95-0.42,0.95-0.87V8.63z"/>
	<path class="st1" d="M75.12,16.11c0,0.72,0.04,1.33,1.1,1.33h2.89c0.87,0,1.25,0.61,1.25,1.18c0,0.68-0.49,1.22-1.25,1.22H68.47
		c-0.76,0-1.22-0.53-1.22-1.22c0-0.57,0.38-1.18,1.22-1.18h2.96c1.06,0,1.1-0.61,1.1-1.33v-0.99c0-0.42,0.15-0.76,0.42-0.99
		c-2.28-0.38-4.07-2.2-4.07-4.67c0-2.77,2.28-4.75,4.98-4.75c2.74,0,5.02,1.98,5.02,4.75c0,2.47-1.82,4.33-4.18,4.71
		c0.27,0.23,0.42,0.57,0.42,0.95V16.11z M73.87,11.86c1.37,0,2.47-0.95,2.47-2.39s-1.1-2.39-2.47-2.39c-1.33,0-2.47,0.95-2.47,2.39
		S72.54,11.86,73.87,11.86z"/>
	<path class="st1" d="M84.21,19.27c-0.72,0-1.18-0.46-1.18-1.18c0-0.72,0.46-1.22,1.18-1.22h10.71c0.68,0,1.22,0.49,1.22,1.22
		c0,0.72-0.49,1.18-1.22,1.18H84.21z M87.09,14.37c-1.22,0-2.09-0.84-2.09-2.13V4.26c0-0.72,0.53-1.25,1.29-1.25
		c0.72,0,1.25,0.53,1.25,1.25v1.06c0,0.68,0.27,1.03,0.84,0.99h2.58c0.68,0,0.84-0.34,0.84-1.03V4.11c0-0.72,0.53-1.25,1.25-1.25
		c0.76,0,1.29,0.53,1.29,1.25v8.13c0,1.29-0.84,2.13-2.09,2.13H87.09z M87.47,10.72c0,0.8,0.08,1.25,1.18,1.25h1.94
		c1.1,0,1.25-0.46,1.25-1.25V9.65c0-0.72-0.15-1.14-1.29-1.14h-1.82c-1.06,0-1.25,0.46-1.25,1.14V10.72z"/>
	<path class="st1" d="M101.46,14.37c-1.22,0-2.09-0.84-2.09-2.13v-4.9c0-1.25,0.87-2.09,2.09-2.09h6.27c0.72,0,1.25,0.49,1.25,1.22
		c0,0.72-0.53,1.18-1.25,1.18h-4.26c-1.18,0-1.56,0.84-1.56,1.48v1.18c0,0.8,0.27,1.67,1.52,1.67h4.45c0.72,0,1.22,0.42,1.22,1.14
		c0,0.76-0.49,1.22-1.22,1.25H101.46z M114.95,16.27c0,0.72-0.49,1.29-1.22,1.29c-0.76,0-1.29-0.57-1.29-1.29V11.9
		c0-0.68-0.08-1.18-1.03-1.18h-1.22c-0.76,0-1.22-0.46-1.22-1.14c0-0.65,0.38-1.18,1.22-1.18h1.22c1.06,0,1.03-0.57,1.03-1.25v-1.6
		c0-0.27,0.15-1.22,1.29-1.25c0.76,0,1.22,0.49,1.22,1.25V16.27z"/>
	<path class="st1" d="M126.16,8.4c-0.61,0-0.72,0.53-0.68,0.76c0.15,0.8,1.48,1.63,3.69,2.96c0.46,0.3,0.72,1.18,0.23,1.79
		c-0.38,0.46-1.06,0.65-1.75,0.19l-2.39-1.86c-0.87-0.65-1.48-0.68-2.32-0.04c-0.76,0.57-1.63,1.33-2.47,1.94
		c-0.61,0.42-1.41,0.42-1.9-0.11c-0.53-0.53-0.46-1.44,0.11-1.79c1.9-1.06,3.57-2.17,3.69-3.08c0.04-0.34-0.08-0.76-0.68-0.76h-1.98
		c-0.72,0-1.22-0.42-1.22-1.14c0-0.76,0.49-1.18,1.22-1.18h2.43c0.49,0,0.61-0.27,0.61-0.76V4.11c0-0.72,0.57-1.22,1.29-1.22
		c0.72,0,1.25,0.49,1.25,1.22v1.18c0,0.61,0.08,0.76,0.57,0.8h2.55c0.72,0,1.25,0.42,1.25,1.18c0,0.72-0.53,1.14-1.25,1.14H126.16z
		 M133.57,20.56v3.61c0,1.29-1.03,2.01-2.13,2.01h-3.15c-1.03,0-1.33,0.72-1.33,1.33v0.3c0,0.72,0.23,1.6,1.48,1.6h4.25
		c0.72,0,1.25,0.46,1.25,1.18c0,0.72-0.53,1.18-1.25,1.18h-6.19c-1.14,0-2.09-0.8-2.09-2.05v-3.65c0-1.33,0.99-2.2,2.24-2.2h3
		c1.03,0,1.33-0.61,1.33-1.25v-0.34c0-0.68-0.27-1.41-1.48-1.41h-3.76c-0.72,0-1.25-0.46-1.25-1.18c0-0.72,0.53-1.18,1.25-1.18h5.7
		C132.69,18.51,133.57,19.23,133.57,20.56z M131.59,5.55c0-0.76,0.53-1.25,1.29-1.25c1.14,0.04,1.25,0.99,1.25,1.25v10.52
		c0,0.72-0.53,1.29-1.25,1.29s-1.29-0.57-1.29-1.29V5.55z"/>
	<path class="st1" d="M138.74,19.27c-0.72,0-1.18-0.46-1.18-1.18c0-0.72,0.46-1.22,1.18-1.22h10.71c0.68,0,1.22,0.49,1.22,1.22
		c0,0.72-0.49,1.18-1.22,1.18H138.74z M141.39,14.37c-1.22,0-2.09-0.84-2.09-2.13v-4.9c0-1.25,0.87-2.09,2.09-2.09h6.27
		c0.72,0,1.25,0.49,1.25,1.22c0,0.72-0.53,1.18-1.25,1.18h-4.26c-1.18,0-1.56,0.84-1.56,1.48v1.18c0,0.8,0.27,1.67,1.52,1.67h4.45
		c0.72,0,1.22,0.42,1.22,1.14c0,0.76-0.49,1.22-1.22,1.25H141.39z"/>
	<path class="st1" d="M162.86,2.89v3.8c0,1.22-1.03,1.98-2.17,1.98h-2.93c-1.03,0-1.33,0.8-1.33,1.44v0.23
		c0,0.72,0.23,1.63,1.48,1.63h4.1c0.76,0,1.29,0.46,1.29,1.18c0,0.76-0.53,1.22-1.29,1.22h-6.04c-1.14,0-2.09-0.84-2.09-2.13V8.55
		c0-1.29,0.99-2.17,2.28-2.17h2.77c1.03,0,1.33-0.72,1.33-1.37V4.64c0-0.72-0.27-1.48-1.48-1.48h-3.53c-0.72,0-1.25-0.46-1.25-1.18
		c0-0.76,0.53-1.22,1.25-1.22h5.43C161.95,0.76,162.86,1.49,162.86,2.89z M160.24,17.82c0.72,0,1.25,0.53,1.25,1.25v2.7
		c0,0.8,0.3,1.79,1.71,1.79h4.64c0.72,0,1.25,0.46,1.25,1.18c0,0.76-0.53,1.22-1.25,1.22h-6.8c-1.14,0-2.05-0.76-2.05-2.13v-4.75
		C158.99,18.36,159.52,17.82,160.24,17.82z M169.1,16.27c0,0.72-0.49,1.29-1.22,1.29c-0.76,0-1.29-0.57-1.29-1.29V11.9
		c0-0.68-0.08-1.18-1.03-1.18h-1.22c-0.76,0-1.22-0.46-1.22-1.14c0-0.65,0.38-1.18,1.22-1.18h1.22c1.06,0,1.03-0.57,1.03-1.25v-1.6
		c0-0.27,0.15-1.22,1.29-1.25c0.76,0,1.22,0.49,1.22,1.25V16.27z"/>
	<path class="st1" d="M187.75,21.24c0,0.68-0.46,1.25-1.29,1.25c-0.8,0-1.25-0.49-1.25-1.25v-1.03c0-0.72-0.08-1.29-1.14-1.29h-2.89
		c-0.87,0-1.25-0.65-1.25-1.22c0-0.61,0.49-1.22,1.25-1.22h10.64c0.76,0,1.22,0.61,1.22,1.22c0,0.57-0.38,1.22-1.22,1.22h-2.96
		c-1.03,0-1.1,0.57-1.1,1.29V21.24z M182.62,8.59h-0.87c-0.72,0-1.18-0.46-1.18-1.18c0-0.72,0.46-1.18,1.18-1.18h2.93
		c0.46,0,0.57-0.27,0.57-0.8V3.92c0-0.72,0.57-1.22,1.29-1.22c0.72,0,1.25,0.49,1.25,1.22V5.4c0,0.65,0.08,0.8,0.57,0.84h2.85
		c0.72,0,1.25,0.46,1.25,1.18c0,0.72-0.53,1.18-1.25,1.18h-0.84c0.42,0.46,0.65,1.52,0.65,2.17c0,2.47-2.05,4.26-4.48,4.26
		c-2.47,0-4.52-1.79-4.52-4.26C182.02,9.92,182.25,9.16,182.62,8.59z M186.54,12.69c1.1,0,2.09-0.8,2.09-2.01
		c0-1.25-0.99-2.09-2.09-2.09c-1.18,0-2.2,0.84-2.2,2.09C184.33,11.9,185.36,12.69,186.54,12.69z"/>
	<path class="st1" d="M202.76,21.28c0,0.68-0.46,1.25-1.29,1.25c-0.8,0-1.25-0.49-1.25-1.25v-1.03c0-0.72-0.08-1.29-1.14-1.29h-2.13
		c-0.87,0-1.25-0.65-1.25-1.22c0-0.61,0.49-1.25,1.25-1.25h10.45c0.76,0,1.22,0.65,1.22,1.25c0,0.57-0.38,1.22-1.22,1.22h-3.53
		c-1.03,0-1.1,0.57-1.1,1.29V21.28z M213.17,16.27c0,0.72-0.49,1.29-1.22,1.29c-0.76,0-1.29-0.57-1.29-1.29V11.9
		c0-0.68-0.19-1.18-1.14-1.18h-1.29c-0.68,0-1.1-0.34-1.22-0.87c-0.19,2.58-2.39,4.37-4.98,4.37c-2.7,0-4.98-1.98-4.98-4.75
		c0-2.77,2.28-4.75,4.98-4.75c2.66,0,4.86,1.86,5.02,4.52c0.11-0.49,0.49-0.84,1.18-0.84h1.29c1.06,0,1.14-0.57,1.14-1.25v-1.6
		c0-0.27,0.15-1.22,1.29-1.25c0.76,0,1.22,0.49,1.22,1.25V16.27z M202.04,11.86c1.37,0,2.47-0.95,2.47-2.39s-1.1-2.39-2.47-2.39
		c-1.33,0-2.47,0.95-2.47,2.39S200.71,11.86,202.04,11.86z M204.51,21.81c0.72,0,1.25,0.53,1.25,1.25v2.7c0,0.8,0.3,1.79,1.71,1.79
		h4.63c0.72,0,1.25,0.46,1.25,1.18c0,0.76-0.53,1.22-1.25,1.22h-6.8c-1.14,0-2.05-0.76-2.05-2.13v-4.75
		C203.26,22.35,203.79,21.81,204.51,21.81z"/>
	<path class="st1" d="M224.27,16.11c0,0.72,0.04,1.33,1.1,1.33h3.08c0.87,0,1.25,0.61,1.25,1.18c0,0.68-0.49,1.22-1.25,1.22h-10.64
		c-0.76,0-1.22-0.53-1.22-1.22c0-0.57,0.38-1.18,1.22-1.18h2.77c1.06,0,1.1-0.61,1.1-1.33v-0.99c0-0.15,0-0.3,0.04-0.46
		c-1.86-0.46-3.27-2.05-3.27-4.1c0-0.84,0.23-1.6,0.61-2.17h-0.87c-0.72,0-1.18-0.46-1.18-1.18c0-0.72,0.46-1.18,1.18-1.18h2.93
		c0.46,0,0.57-0.27,0.57-0.8V3.73c0-0.72,0.57-1.22,1.29-1.22s1.25,0.49,1.25,1.22v1.48c0,0.65,0.08,0.8,0.57,0.84h2.85
		c0.72,0,1.25,0.46,1.25,1.18c0,0.72-0.53,1.18-1.25,1.18h-0.83c0.42,0.46,0.65,1.52,0.65,2.17c0,2.05-1.41,3.61-3.27,4.1
		c0.04,0.15,0.08,0.3,0.08,0.46V16.11z M222.98,12.5c1.1,0,2.09-0.8,2.09-2.01c0-1.25-0.99-2.09-2.09-2.09
		c-1.18,0-2.2,0.84-2.2,2.09C220.78,11.71,221.8,12.5,222.98,12.5z M230.96,5.55c0-0.76,0.53-1.25,1.29-1.25
		c1.14,0.04,1.25,0.99,1.25,1.25v10.52c0,0.72-0.53,1.29-1.25,1.29s-1.29-0.57-1.29-1.29V5.55z"/>
	<path class="st1" d="M243.8,21.28c0,0.68-0.46,1.25-1.29,1.25c-0.8,0-1.25-0.49-1.25-1.25v-1.03c0-0.72-0.08-1.29-1.14-1.29h-2.13
		c-0.87,0-1.25-0.65-1.25-1.22c0-0.61,0.49-1.25,1.25-1.25h10.45c0.76,0,1.22,0.65,1.22,1.25c0,0.57-0.38,1.22-1.22,1.22h-3.53
		c-1.03,0-1.1,0.57-1.1,1.29V21.28z M254.21,16.27c0,0.72-0.49,1.29-1.22,1.29c-0.76,0-1.29-0.57-1.29-1.29V11.9
		c0-0.68-0.19-1.18-1.14-1.18h-1.29c-0.68,0-1.1-0.34-1.22-0.87c-0.19,2.58-2.39,4.37-4.98,4.37c-2.7,0-4.98-1.98-4.98-4.75
		c0-2.77,2.28-4.75,4.98-4.75c2.66,0,4.86,1.86,5.02,4.52c0.11-0.49,0.49-0.84,1.18-0.84h1.29c1.06,0,1.14-0.57,1.14-1.25v-1.6
		c0-0.27,0.15-1.22,1.29-1.25c0.76,0,1.22,0.49,1.22,1.25V16.27z M243.08,11.86c1.37,0,2.47-0.95,2.47-2.39s-1.1-2.39-2.47-2.39
		c-1.33,0-2.47,0.95-2.47,2.39S241.75,11.86,243.08,11.86z M245.55,21.81c0.72,0,1.25,0.53,1.25,1.25v2.7c0,0.8,0.3,1.79,1.71,1.79
		h4.63c0.72,0,1.25,0.46,1.25,1.18c0,0.76-0.53,1.22-1.25,1.22h-6.8c-1.14,0-2.05-0.76-2.05-2.13v-4.75
		C244.3,22.35,244.83,21.81,245.55,21.81z"/>
	<path class="st1" d="M262.61,4.72c2.74,0,5.02,1.98,5.02,4.75c0,2.77-2.28,4.75-5.02,4.75c-2.7,0-4.98-1.98-4.98-4.75
		C257.64,6.69,259.92,4.72,262.61,4.72z M262.61,11.86c1.37,0,2.47-0.95,2.47-2.39s-1.1-2.39-2.47-2.39c-1.33,0-2.47,0.95-2.47,2.39
		S261.28,11.86,262.61,11.86z M270.29,5.55c0-0.76,0.53-1.25,1.29-1.25c1.14,0.04,1.25,0.99,1.25,1.25v10.52
		c0,0.72-0.53,1.29-1.25,1.29c-0.72,0-1.29-0.57-1.29-1.29V5.55z"/>
	<path class="st1" d="M291.53,16.11c0,0.72,0.04,1.33,1.1,1.33h3.08c0.87,0,1.25,0.61,1.25,1.18c0,0.68-0.49,1.22-1.25,1.22h-10.64
		c-0.76,0-1.22-0.53-1.22-1.22c0-0.57,0.38-1.18,1.22-1.18h2.77c1.06,0,1.1-0.61,1.1-1.33v-0.99c0-0.34,0.11-0.65,0.3-0.87h-1.52
		c-1.14,0-1.98-0.8-1.98-2.01v-4.9c0-1.18,0.84-1.98,1.98-1.98H294c0.65,0,1.14,0.46,1.14,1.1s-0.49,1.06-1.14,1.06h-4.26
		c-1.25,0-1.67,0.91-1.67,1.6v1.18c0,0.84,0.27,1.79,1.63,1.79h4.45c0.65,0,1.1,0.38,1.1,1.03c0,0.68-0.46,1.1-1.1,1.14h-2.92
		c0.19,0.23,0.3,0.53,0.3,0.87V16.11z M298.22,5.55c0-0.76,0.53-1.25,1.29-1.25c1.14,0.04,1.25,0.99,1.25,1.25v10.52
		c0,0.72-0.53,1.29-1.25,1.29s-1.29-0.57-1.29-1.29V5.55z"/>
	<path class="st1" d="M310.95,11.4c-0.95-0.76-1.37-0.84-2.32-0.04l-2.62,2.39c-0.61,0.49-1.48,0.3-1.86-0.08
		c-0.46-0.49-0.42-1.41,0.04-1.71c3.19-2.2,4.22-3.61,4.26-6.31c0-0.76,0.53-1.22,1.29-1.22c0.72,0,1.33,0.46,1.29,1.22
		c-0.19,2.74,1.48,4.18,4.03,6.04c0.49,0.38,0.57,1.29,0.08,1.86c-0.49,0.49-1.33,0.49-1.86,0L310.95,11.4z M317.03,5.55
		c0-0.76,0.53-1.25,1.29-1.25c1.14,0.04,1.25,0.99,1.25,1.25v10.52c0,0.72-0.53,1.29-1.25,1.29c-0.72,0-1.29-0.57-1.29-1.29V5.55z"
		/>
	<path class="st1" d="M325.66,14.25c-1.22,0-2.09-0.8-2.09-2.09v-4.9c0-1.22,0.87-2.09,2.09-2.09h5.13c1.29,0,2.13,0.87,2.13,2.09
		v4.9c0,1.29-0.84,2.09-2.13,2.09H325.66z M326.04,10.34c0,0.91,0.19,1.56,1.25,1.56h1.75c1.1,0,1.33-0.65,1.33-1.56V8.97
		c0-0.76-0.23-1.41-1.37-1.41h-1.63c-1.06,0-1.33,0.68-1.33,1.41V10.34z M330.29,17.82c0.72,0,1.25,0.53,1.25,1.25v2.7
		c0,0.8,0.3,1.79,1.71,1.79h4.64c0.72,0,1.25,0.46,1.25,1.18c0,0.76-0.53,1.22-1.25,1.22h-6.8c-1.14,0-2.05-0.76-2.05-2.13v-4.75
		C329.04,18.36,329.57,17.82,330.29,17.82z M339.14,16.27c0,0.72-0.53,1.29-1.25,1.29s-1.29-0.57-1.29-1.29V14.1
		c0-0.46-0.08-0.91-0.87-0.91h-1.14c-0.76,0-1.22-0.46-1.22-1.14c0-0.61,0.34-1.14,1.22-1.14h1.14c0.8,0,0.87-0.38,0.87-0.84V9.31
		c0-0.57-0.08-0.91-0.87-0.91h-1.14c-0.76,0-1.22-0.46-1.22-1.14c0-0.61,0.34-1.14,1.22-1.14h1.14c0.84,0,0.87-0.53,0.87-1.14v-0.8
		c0-0.27,0.15-1.22,1.29-1.25c0.76,0,1.25,0.49,1.25,1.25V16.27z"/>
</g>
</svg>
