<?xml version="1.0" encoding="utf-8"?>
<!-- Generator: Adobe Illustrator 23.0.1, SVG Export Plug-In . SVG Version: 6.00 Build 0)  -->
<svg version="1.1" id="레이어_1" xmlns="http://www.w3.org/2000/svg" xmlns:xlink="http://www.w3.org/1999/xlink" x="0px"
	 y="0px" viewBox="0 0 87 25.19" style="enable-background:new 0 0 87 25.19;" xml:space="preserve">
<style type="text/css">
	.st0{fill:#FFCD00;}
	.st1{fill:#003CA6;}
</style>
<g>
	<path class="st0" d="M2.87,7.94c0-0.19,0.34-1.29,0.65-2.28c0.08-0.23-0.04-0.42-0.3-0.19c-0.68,0.8-1.48,1.71-1.67,1.75
		C0.48,7.87-0.62,6.16,0.56,5.43l2.17-0.65C3.1,4.67,2.87,4.45,2.65,4.41C1.7,4.18,0.67,3.95,0.48,3.84
		c-1.1-0.65-0.11-2.47,1.03-1.82C1.62,2.17,2.3,2.85,2.99,3.5c0.19,0.19,0.57,0.27,0.42-0.23C3.14,2.36,2.87,1.33,2.87,1.18
		c0-1.25,2.05-1.33,2.05,0c0,0.15-0.27,1.18-0.49,2.09C4.32,3.76,4.66,3.76,4.85,3.53l1.6-1.52c1.14-0.65,2.13,1.18,0.99,1.82
		C7.28,3.95,6.22,4.18,5.27,4.41c-0.27,0.04-0.46,0.3,0,0.38c0.91,0.3,1.94,0.57,2.13,0.65c1.18,0.72,0.08,2.43-0.99,1.79
		C6.22,7.18,5.38,6.31,4.7,5.51C4.62,5.43,4.32,5.24,4.36,5.66c0.27,0.99,0.57,2.09,0.57,2.28C4.93,9.27,2.87,9.23,2.87,7.94z"/>
	<path class="st1" d="M18.83,17.06c0,0.68-0.46,1.25-1.29,1.25c-0.8,0-1.25-0.49-1.25-1.25v-1.03c0-0.72-0.08-1.29-1.14-1.29h-2.89
		c-0.87,0-1.25-0.65-1.25-1.22c0-0.61,0.49-1.22,1.25-1.22H22.9c0.76,0,1.22,0.61,1.22,1.22c0,0.57-0.38,1.22-1.22,1.22h-2.96
		c-1.03,0-1.1,0.57-1.1,1.29V17.06z M13.85,17.06c0.72,0,1.25,0.53,1.25,1.25v2.7c0,0.8,0.3,1.79,1.71,1.79h4.64
		c0.72,0,1.25,0.46,1.25,1.18c0,0.76-0.53,1.22-1.25,1.22h-6.8c-1.14,0-2.05-0.76-2.05-2.13v-4.75
		C12.6,17.59,13.13,17.06,13.85,17.06z M14.88,10.07c-1.22,0-2.09-0.8-2.09-2.09v-4.9c0-1.22,0.87-2.09,2.09-2.09h5.13
		c1.29,0,2.13,0.87,2.13,2.09v4.9c0,1.29-0.84,2.09-2.13,2.09H14.88z M15.26,6.16c0,0.91,0.19,1.56,1.25,1.56h1.75
		c1.1,0,1.33-0.65,1.33-1.56V4.79c0-0.76-0.23-1.41-1.37-1.41h-1.63c-1.06,0-1.33,0.68-1.33,1.41V6.16z"/>
	<path class="st1" d="M28.14,15.08c-0.72,0-1.18-0.46-1.18-1.18c0-0.72,0.46-1.22,1.18-1.22h10.37c0.68,0,1.22,0.49,1.22,1.22
		c0,0.72-0.49,1.18-1.22,1.18H28.14z M33.12,0.53c2.74,0,5.02,1.98,5.02,4.75c0,2.77-2.28,4.75-5.02,4.75
		c-2.7,0-4.98-1.98-4.98-4.75C28.14,2.51,30.42,0.53,33.12,0.53z M33.12,7.68c1.37,0,2.47-0.95,2.47-2.39s-1.1-2.39-2.47-2.39
		c-1.33,0-2.47,0.95-2.47,2.39S31.79,7.68,33.12,7.68z M41.14,1.37c0-0.76,0.53-1.25,1.29-1.25c1.14,0.04,1.25,0.99,1.25,1.25v10.52
		c0,0.72-0.53,1.29-1.25,1.29c-0.72,0-1.29-0.57-1.29-1.29V1.37z"/>
	<path class="st1" d="M51.89,0.53c2.74,0,5.02,1.98,5.02,4.75c0,2.77-2.28,4.75-5.02,4.75c-2.7,0-4.98-1.98-4.98-4.75
		C46.91,2.51,49.19,0.53,51.89,0.53z M51.89,7.68c1.37,0,2.47-0.95,2.47-2.39s-1.1-2.39-2.47-2.39c-1.33,0-2.47,0.95-2.47,2.39
		S50.56,7.68,51.89,7.68z M53.26,13.64c0.72,0,1.25,0.53,1.25,1.25v2.7c0,0.8,0.3,1.79,1.71,1.79h4.64c0.72,0,1.25,0.46,1.25,1.18
		c0,0.76-0.53,1.22-1.25,1.22h-6.8c-1.14,0-2.05-0.76-2.05-2.13v-4.75C52.01,14.17,52.54,13.64,53.26,13.64z M59.53,1.25
		c0-0.76,0.53-1.25,1.29-1.25c0.91,0,1.25,0.57,1.25,1.25v2.2c0,0.68,0.08,1.25,1.14,1.25h1.29c0.87,0,1.22,0.61,1.22,1.18
		c0,0.68-0.46,1.14-1.22,1.14h-1.29c-0.95,0-1.14,0.49-1.14,1.18v3.76c0,0.72-0.53,1.29-1.25,1.29c-0.72,0-1.29-0.57-1.29-1.29V1.25
		z"/>
	<path class="st1" d="M69.3,0.95c0.72,0,1.25,0.57,1.25,1.29V6c0,0.8,0.27,1.79,1.67,1.79h4.45c0.72,0,1.25,0.46,1.25,1.18
		c0,0.76-0.53,1.22-1.25,1.22h-6.57c-1.14,0-2.09-0.76-2.09-2.13V2.24C68.01,1.52,68.54,0.95,69.3,0.95z M87,12.08
		c0,0.72-0.49,1.29-1.21,1.29c-0.72,0-1.25-0.57-1.25-1.29v-3.8c0-0.57-0.19-1.14-1.14-1.14h-0.3c-0.76,0.04-1.06,0.53-1.06,1.14
		v3.61c0,0.72-0.49,1.29-1.22,1.29c-0.76,0-1.25-0.57-1.25-1.29V1.37c0-0.76,0.46-1.25,1.25-1.25c1.14,0.04,1.22,0.99,1.22,1.25
		v2.17c0,0.68,0.11,1.33,1.1,1.33h0.3c1.03-0.04,1.1-0.68,1.1-1.33V1.37c0-0.27,0.11-1.22,1.25-1.25c0.76,0,1.21,0.49,1.21,1.25
		V12.08z"/>
</g>
</svg>
