<?xml version="1.0" encoding="utf-8"?>
<!-- Generator: Adobe Illustrator 23.0.1, SVG Export Plug-In . SVG Version: 6.00 Build 0)  -->
<svg version="1.1" id="레이어_1" xmlns="http://www.w3.org/2000/svg" xmlns:xlink="http://www.w3.org/1999/xlink" x="0px"
	 y="0px" viewBox="0 0 686.5 58.11" style="enable-background:new 0 0 686.5 58.11;" xml:space="preserve">
<style type="text/css">
	.st0{fill:#00469B;}
	.st1{fill:#FCCF00;}
</style>
<g>
	<path class="st0" d="M260.99,36.99v5.99c0,1.93,1.43,3.07,3.17,3.07h8.12c1.19,0,2.08-0.74,2.08-2.03c0-1.14-0.89-1.93-2.08-1.93
		h-5.25c-1.34,0-1.83-0.99-1.83-1.93v-3.17c0-1.19-0.94-2.08-2.08-2.08C261.88,34.91,260.99,35.8,260.99,36.99 M274.6,17.34
		c0-1.24-0.79-2.03-2.08-2.03c-1.83,0.05-2.03,1.58-2.03,2.03v0.6c0,0.74-0.59,1.09-1.14,1.09h-1.19c-1.53,0-2.08,0.74-2.08,1.83
		c0,1.09,0.79,1.83,2.08,1.83h1.19c0.69,0,1.14,0.2,1.14,1.14v0.99c0,0.74-0.45,1.04-1.14,1.04h-1.19c-1.53,0-2.08,0.74-2.08,1.83
		c0,1.09,0.79,1.78,2.08,1.78h1.19c0.54,0,1.14,0.3,1.14,1.04v1.68c0,1.29,0.94,2.13,2.03,2.13c1.24,0,2.08-0.84,2.08-2.13V17.34z
		 M256.68,23.23c0-0.65,0.25-1.34,1.19-1.34h1.88c1.09,0,1.29,0.64,1.29,1.34v1.63c0,0.89-0.2,1.49-1.24,1.49h-2.08
		c-0.94,0-1.04-0.59-1.04-1.49V23.23z M262.08,30.36c1.83,0,3.12-1.29,3.12-3.17v-6.14c0-1.83-1.29-3.07-3.12-3.07h-6.34
		c-1.88,0-3.17,1.24-3.17,3.07v6.14c0,1.88,1.29,3.17,3.17,3.17H262.08z M232.68,33.13c-1.49,0-2.13,0.94-2.13,1.98
		c0,1.04,0.84,1.93,2.13,1.93h13.61c1.24,0,2.08-0.89,2.08-1.93c0-1.04-0.69-1.98-2.08-1.98H232.68z M237.23,23.87
		c0-1.49,1.19-2.47,2.57-2.47c1.49,0,2.62,0.99,2.62,2.47c0,1.58-1.14,2.52-2.62,2.52C238.42,26.4,237.23,25.46,237.23,23.87
		 M233.08,23.87c0,3.81,3.07,6.48,6.73,6.48c3.66,0,6.78-2.67,6.78-6.48c0-3.71-3.12-6.38-6.78-6.38
		C236.14,17.49,233.08,20.16,233.08,23.87 M219.46,25.21c0,0.79-0.54,1.04-1.14,1.04h-0.3c-0.64,0-1.14-0.3-1.14-0.99v-2.23
		c0-1.04,0.59-1.19,1.14-1.19h0.3c0.54,0,1.14,0.1,1.14,1.24V25.21z M216.15,45.4c0-0.74,0.3-1.29,1.24-1.29h1.73
		c1.09,0,1.39,0.45,1.39,1.24v1.24c0,0.84-0.3,1.44-1.34,1.44h-1.88c-0.99,0-1.14-0.6-1.14-1.44V45.4z M224.56,30.11
		c1.14,0,2.03-0.79,2.03-1.98c0-1.24-0.94-1.93-2.03-1.93h-0.64c-0.59,0-0.79-0.25-0.79-0.89v-2.52c0-0.64,0.5-0.94,0.94-0.94h0.35
		c1.19,0,2.03-0.69,2.03-1.93c0-1.14-0.84-1.93-2.03-1.93h-12.52c-1.14,0.05-1.98,0.79-1.98,1.93c0,1.24,0.84,1.93,2.03,1.93h0.49
		c0.54,0,0.74,0.35,0.74,1.04v2.42c0,0.64-0.25,0.89-0.74,0.89h-0.59c-1.24,0-2.08,0.69-2.08,1.93c0,1.19,0.84,1.98,2.08,1.98
		H224.56z M221.59,51.89c1.88,0,3.12-1.24,3.12-3.07v-5.5c0-1.83-1.24-3.07-3.12-3.07h-1.78c0.25-0.35,0.4-0.79,0.4-1.29v-0.99
		c0-0.89,0.45-1.44,1.29-1.44h3.51c1.39,0,2.08-0.94,2.08-1.88c0-1.09-0.84-1.93-2.08-1.93H211.3c-1.19,0-2.03,0.84-2.03,1.93
		c0,0.94,0.64,1.88,2.03,1.88h3.47c0.84,0,1.29,0.5,1.29,1.39v1.04c0,0.54,0.1,0.94,0.35,1.29h-1.29c-1.88,0-3.17,1.24-3.17,3.07
		v5.5c0,1.83,1.29,3.07,3.17,3.07H221.59z M190.01,40.36h-6.78c-1.19,0-2.08,0.74-2.08,1.93c0,1.24,0.89,1.98,2.08,1.98h4.21
		c1.44,0,1.63,0.74,1.63,1.34V46c0,0.54-0.3,1.14-1.48,1.14h-3.22c-1.88,0-3.37,1.34-3.37,3.22v4.55c0,1.88,1.44,3.17,3.17,3.17
		h7.32c1.19,0,2.03-0.89,2.03-2.03c0-1.24-0.84-1.98-2.03-1.98h-4.7c-1.44,0-1.53-0.74-1.53-1.39v-0.39c0-0.59,0.15-1.24,1.39-1.24
		h3.37c1.73,0,3.17-1.19,3.17-3.02v-4.6C193.18,41.39,191.94,40.36,190.01,40.36 M180.21,33.13c-1.48,0-2.13,0.94-2.13,1.98
		c0,1.04,0.84,1.93,2.13,1.93h13.61c1.24,0,2.08-0.89,2.08-1.93c0-1.04-0.69-1.98-2.08-1.98H180.21z M189.82,12.19h-6.93
		c-1.19,0-2.08,0.84-2.08,1.98c0,1.24,0.89,2.03,2.08,2.03h4.36c1.44,0,1.63,0.69,1.63,1.34v0.45c0,0.49-0.3,1.14-1.49,1.14h-3.37
		c-1.88,0-3.36,1.34-3.36,3.22v4.7c0,1.88,1.44,3.12,3.17,3.12h7.72c1.19,0,2.03-0.74,2.03-1.93c0-1.24-0.84-2.03-2.03-2.03h-5.1
		c-1.44,0-1.53-0.89-1.53-1.58v-0.35c0-0.55,0.15-1.24,1.39-1.24h3.51c1.73,0,3.17-1.19,3.17-3.07v-4.65
		C192.98,13.28,191.75,12.19,189.82,12.19 M173.63,18.97c0-1.24-0.79-2.08-2.03-2.08c-1.83,0.05-2.18,1.63-2.18,2.08v13.02
		c0,1.29,0.99,2.13,2.18,2.13c1.19,0,2.03-0.84,2.03-2.13V18.97z M156.75,23.82c0-1.48,1.19-2.47,2.57-2.47
		c1.48,0,2.62,0.99,2.62,2.47c0,1.58-1.14,2.52-2.62,2.52C157.94,26.35,156.75,25.41,156.75,23.82 M152.59,23.82
		c0,3.81,3.07,6.48,6.73,6.48s6.78-2.67,6.78-6.48c0-3.71-3.12-6.38-6.78-6.38S152.59,20.11,152.59,23.82 M141.61,32.19
		c0,1.29,0.89,2.13,2.13,2.13c1.14,0,2.08-0.84,2.08-2.13v-4.31c0-0.69,0.44-1.09,1.24-1.09h1.29c1.24,0,2.03-0.84,2.03-1.98
		c0-0.99-0.55-1.93-2.03-1.93h-1.29c-0.89,0-1.24-0.5-1.24-1.34v-2.47c0-0.45-0.25-2.03-2.08-2.08c-1.24,0-2.13,0.79-2.13,2.08
		V32.19z M128.79,23.82c0-1.48,1.19-2.47,2.57-2.47c1.48,0,2.62,0.99,2.62,2.47c0,1.58-1.14,2.52-2.62,2.52
		C129.98,26.35,128.79,25.41,128.79,23.82 M124.63,23.82c0,3.81,3.07,6.48,6.73,6.48c3.66,0,6.78-2.67,6.78-6.48
		c0-3.71-3.12-6.38-6.78-6.38C127.7,17.44,124.63,20.11,124.63,23.82 M103.74,32.19c0,1.29,0.89,2.13,2.13,2.13
		c1.14,0,2.08-0.84,2.08-2.13v-4.31c0-0.69,0.45-1.09,1.24-1.09h1.29c1.24,0,2.03-0.84,2.03-1.98c0-0.99-0.54-1.93-2.03-1.93h-1.29
		c-0.89,0-1.24-0.5-1.24-1.34v-2.47c0-0.45-0.25-2.03-2.08-2.08c-1.24,0-2.13,0.79-2.13,2.08V32.19z M100.38,28.72V21.7
		c0-2.08-1.39-3.12-3.12-3.12h-7.87c-1.29,0-2.13,0.74-2.13,1.98c0,1.19,0.84,1.98,2.13,1.98h5c1.19,0,1.88,0.79,1.88,2.03v4.16
		c0,1.14,0.84,2.03,1.98,2.03C99.44,30.75,100.38,29.86,100.38,28.72 M83.55,18.97c0-1.24-0.79-2.08-2.03-2.08
		c-1.83,0.05-2.18,1.63-2.18,2.08v13.02c0,1.29,0.99,2.13,2.18,2.13c1.19,0,2.03-0.84,2.03-2.13V18.97z M72.66,12.19h-6.93
		c-1.19,0-2.08,0.84-2.08,1.98c0,1.24,0.89,2.03,2.08,2.03h4.35c1.44,0,1.63,0.69,1.63,1.34v0.45c0,0.49-0.3,1.14-1.48,1.14h-3.37
		c-1.88,0-3.37,1.34-3.37,3.22v4.7c0,1.88,1.44,3.12,3.17,3.12h7.72c1.19,0,2.03-0.74,2.03-1.93c0-1.24-0.84-2.03-2.03-2.03h-5.1
		c-1.44,0-1.53-0.89-1.53-1.58v-0.35c0-0.55,0.15-1.24,1.39-1.24h3.51c1.73,0,3.17-1.19,3.17-3.07v-4.65
		C75.83,13.28,74.59,12.19,72.66,12.19 M52.41,37.98c0-0.89,0.45-1.44,1.29-1.44h3.51c1.39,0,2.08-0.94,2.08-1.88
		c0-1.09-0.84-1.93-2.08-1.93H43.51c-1.19,0-2.03,0.84-2.03,1.93c0,0.94,0.64,1.88,2.03,1.88h3.46c0.84,0,1.29,0.5,1.29,1.39v1.04
		c0,1.29,0.84,2.08,2.08,2.08c1.39,0,2.08-0.94,2.08-2.08V37.98z M47.91,23.87c0-1.49,1.19-2.47,2.57-2.47
		c1.48,0,2.62,0.99,2.62,2.47c0,1.58-1.14,2.52-2.62,2.52C49.1,26.4,47.91,25.46,47.91,23.87 M43.75,23.87
		c0,3.81,3.07,6.48,6.73,6.48c3.66,0,6.78-2.67,6.78-6.48c0-3.71-3.12-6.38-6.78-6.38C46.82,17.49,43.75,20.16,43.75,23.87"/>
</g>
<g>
	<path class="st0" d="M636.82,32.22c0,1.29,0.89,2.13,2.13,2.13c1.14,0,2.08-0.84,2.08-2.13v-4.31c0-0.69,0.44-1.09,1.24-1.09h1.29
		c1.24,0,2.03-0.84,2.03-1.98c0-0.99-0.54-1.93-2.03-1.93h-1.29c-0.89,0-1.24-0.49-1.24-1.34v-2.47c0-0.45-0.25-2.03-2.08-2.08
		c-1.24,0-2.13,0.79-2.13,2.08V32.22z M631.52,30.14c1.19-0.1,2.08-0.84,2.08-2.03c0-1.24-0.89-1.98-2.08-1.98h-5.35
		c-1.19,0-1.63-0.69-1.63-1.88v-0.59c0-0.94,0.55-1.68,1.73-1.68h5.05c1.19,0,2.08-0.74,2.08-1.93c0-1.24-0.89-2.03-2.08-2.03h-7.82
		c-1.88,0-3.17,1.24-3.17,3.12v5.84c0,1.88,1.29,3.17,3.17,3.17H631.52z M615.14,19.01c0-1.24-0.79-2.08-2.03-2.08
		c-1.83,0.05-2.18,1.63-2.18,2.08v13.02c0,1.29,0.99,2.13,2.18,2.13c1.19,0,2.03-0.84,2.03-2.13V19.01z M595.09,27.07
		c0,1.98,1.43,3.12,3.17,3.12h8.22c1.19,0,2.13-0.84,2.13-2.03c0-1.24-0.94-1.93-2.13-1.93h-5.35c-1.34,0-1.83-0.89-1.83-1.98V20
		c0-1.14-0.94-1.98-2.08-1.98c-1.24,0-2.13,0.84-2.13,1.98V27.07z M580.05,48.5c0-0.49,0.1-1.09,0.94-1.09h2.18
		c1.04,0,1.19,0.54,1.19,1.09v0.4c0,0.65-0.15,1.29-1.14,1.29h-2.23c-0.94,0-0.94-0.64-0.94-1.29V48.5z M585.34,54.05
		c1.88,0,3.12-1.24,3.12-3.12v-9.01c0-1.14-0.94-2.08-2.08-2.08c-1.24,0-2.08,0.94-2.08,2.08v1.09c0,0.54-0.1,0.84-0.74,0.89h-2.77
		c-0.59,0-0.69-0.3-0.69-0.84v-0.99c0-1.19-0.94-2.03-2.13-2.03c-1.19,0-2.08,0.84-2.08,2.03v8.91c0,1.88,1.24,3.07,3.17,3.07
		H585.34z M575.2,33.16c-1.48,0-2.13,0.94-2.13,1.98c0,1.04,0.84,1.93,2.13,1.93h13.61c1.24,0,2.08-0.89,2.08-1.93
		c0-1.04-0.69-1.98-2.08-1.98H575.2z M586.33,29.55c0.74,0.84,2.18,0.79,2.97-0.05c0.79-0.79,0.74-2.43-0.1-3.07
		c-2.67-1.98-5.15-3.07-4.9-7.03c0.1-1.19-0.89-2.08-2.08-2.08c-1.14,0-2.18,0.89-2.03,2.08c0.2,4.01-2.82,5.44-5.15,7.37
		c-0.84,0.69-0.99,1.93-0.2,2.87c0.69,0.69,2.08,1.14,3.12,0.2c0.79-0.79,1.93-1.98,3.07-3.07c1.04-0.99,1.73-0.84,2.72,0.05
		C584.6,27.72,585.29,28.51,586.33,29.55 M567.23,46.53c0.64,0.79,2.18,0.89,2.97,0.1c0.84-0.84,0.84-2.23,0.05-2.97
		c-2.18-2.08-3.52-2.87-3.47-6.53c0-1.24-0.94-2.03-2.13-2.03c-1.24,0-2.18,0.84-2.13,2.03c0.1,2.72-0.6,3.56-1.58,4.4
		c-0.4,0.3-1.24,0.25-1.53,0c-1.29-0.99-1.53-1.78-1.43-4.31c0.1-1.19-0.89-2.03-2.08-2.03c-1.24,0-2.03,0.79-2.03,1.98
		c-0.05,2.47-0.49,4.11-3.71,6.68c-0.99,0.79-0.84,2.28-0.05,2.97c0.74,0.84,2.18,0.94,2.97,0.15l2.32-2.33
		c0.79-0.74,1.14-0.69,1.88,0.05c1.04,0.99,2.23,1.53,3.12,1.53c0.89,0,2.03-0.6,2.97-1.58c0.74-0.84,1.29-0.84,2.03-0.05
		L567.23,46.53z M568.86,19.01c0-1.24-0.79-2.08-2.03-2.08c-1.83,0.05-2.18,1.63-2.18,2.08v13.02c0,1.29,0.99,2.13,2.18,2.13
		c1.19,0,2.03-0.84,2.03-2.13V19.01z M551.98,23.86c0-1.49,1.19-2.47,2.57-2.47c1.48,0,2.62,0.99,2.62,2.47
		c0,1.58-1.14,2.52-2.62,2.52C553.17,26.38,551.98,25.44,551.98,23.86 M547.83,23.86c0,3.81,3.07,6.48,6.73,6.48
		c3.66,0,6.78-2.67,6.78-6.48c0-3.71-3.12-6.39-6.78-6.39C550.89,17.47,547.83,20.15,547.83,23.86 M527.58,38.01
		c0-0.89,0.45-1.43,1.29-1.43h3.52c1.39,0,2.08-0.94,2.08-1.88c0-1.09-0.84-1.93-2.08-1.93h-13.71c-1.19,0-2.03,0.84-2.03,1.93
		c0,0.94,0.64,1.88,2.03,1.88h3.47c0.84,0,1.29,0.49,1.29,1.39V39c0,1.29,0.84,2.08,2.08,2.08c1.39,0,2.08-0.94,2.08-2.08V38.01z
		 M529.66,29.55c0.74,0.84,2.18,0.79,2.97-0.05c0.79-0.79,0.74-2.43-0.1-3.07c-2.67-1.98-5.15-3.07-4.9-7.03
		c0.1-1.19-0.89-2.08-2.08-2.08c-1.14,0-2.18,0.89-2.03,2.08c0.2,4.01-2.82,5.44-5.15,7.37c-0.84,0.69-0.99,1.93-0.2,2.87
		c0.69,0.69,2.08,1.14,3.12,0.2c0.79-0.79,1.93-1.98,3.07-3.07c1.04-0.99,1.73-0.84,2.72,0.05
		C527.93,27.72,528.62,28.51,529.66,29.55 M497.39,40.39h-6.78c-1.19,0-2.08,0.74-2.08,1.93c0,1.24,0.89,1.98,2.08,1.98h4.21
		c1.44,0,1.63,0.74,1.63,1.33v0.4c0,0.55-0.3,1.14-1.48,1.14h-3.22c-1.88,0-3.37,1.34-3.37,3.22v4.55c0,1.88,1.44,3.17,3.17,3.17
		h7.32c1.19,0,2.03-0.89,2.03-2.03c0-1.24-0.84-1.98-2.03-1.98h-4.7c-1.44,0-1.53-0.74-1.53-1.39v-0.39c0-0.59,0.15-1.24,1.38-1.24
		h3.37c1.73,0,3.17-1.19,3.17-3.02v-4.6C500.56,41.43,499.32,40.39,497.39,40.39 M487.59,33.16c-1.49,0-2.13,0.94-2.13,1.98
		c0,1.04,0.84,1.93,2.13,1.93h13.61c1.24,0,2.08-0.89,2.08-1.93c0-1.04-0.69-1.98-2.08-1.98H487.59z M492.14,23.91
		c0-1.48,1.19-2.48,2.57-2.48c1.49,0,2.62,0.99,2.62,2.48c0,1.58-1.14,2.52-2.62,2.52C493.33,26.43,492.14,25.49,492.14,23.91
		 M487.98,23.91c0,3.81,3.07,6.48,6.73,6.48c3.66,0,6.78-2.67,6.78-6.48c0-3.71-3.12-6.38-6.78-6.38
		C491.05,17.52,487.98,20.19,487.98,23.91 M474.37,25.24c0,0.79-0.54,1.04-1.14,1.04h-0.3c-0.64,0-1.14-0.3-1.14-0.99v-2.23
		c0-1.04,0.59-1.19,1.14-1.19h0.3c0.55,0,1.14,0.1,1.14,1.24V25.24z M471.06,45.44c0-0.74,0.3-1.29,1.24-1.29h1.73
		c1.09,0,1.39,0.45,1.39,1.24v1.24c0,0.84-0.3,1.44-1.34,1.44h-1.88c-0.99,0-1.14-0.6-1.14-1.44V45.44z M479.47,30.14
		c1.14,0,2.03-0.79,2.03-1.98c0-1.24-0.94-1.93-2.03-1.93h-0.64c-0.59,0-0.79-0.25-0.79-0.89v-2.52c0-0.64,0.5-0.94,0.94-0.94h0.35
		c1.19,0,2.03-0.69,2.03-1.93c0-1.14-0.84-1.93-2.03-1.93H466.8c-1.14,0.05-1.98,0.79-1.98,1.93c0,1.24,0.84,1.93,2.03,1.93h0.5
		c0.54,0,0.74,0.35,0.74,1.04v2.43c0,0.64-0.25,0.89-0.74,0.89h-0.6c-1.24,0-2.08,0.69-2.08,1.93c0,1.19,0.84,1.98,2.08,1.98H479.47
		z M476.5,51.92c1.88,0,3.12-1.24,3.12-3.07v-5.5c0-1.83-1.24-3.07-3.12-3.07h-1.78c0.25-0.35,0.4-0.79,0.4-1.29v-0.99
		c0-0.89,0.45-1.43,1.29-1.43h3.51c1.39,0,2.08-0.94,2.08-1.88c0-1.09-0.84-1.93-2.08-1.93h-13.71c-1.19,0-2.03,0.84-2.03,1.93
		c0,0.94,0.64,1.88,2.03,1.88h3.46c0.84,0,1.29,0.49,1.29,1.39V39c0,0.54,0.1,0.94,0.35,1.29h-1.29c-1.88,0-3.17,1.24-3.17,3.07v5.5
		c0,1.83,1.29,3.07,3.17,3.07H476.5z M444.92,40.39h-6.78c-1.19,0-2.08,0.74-2.08,1.93c0,1.24,0.89,1.98,2.08,1.98h4.21
		c1.44,0,1.63,0.74,1.63,1.33v0.4c0,0.55-0.3,1.14-1.48,1.14h-3.22c-1.88,0-3.37,1.34-3.37,3.22v4.55c0,1.88,1.44,3.17,3.17,3.17
		h7.33c1.19,0,2.03-0.89,2.03-2.03c0-1.24-0.84-1.98-2.03-1.98h-4.7c-1.44,0-1.53-0.74-1.53-1.39v-0.39c0-0.59,0.15-1.24,1.39-1.24
		h3.37c1.73,0,3.17-1.19,3.17-3.02v-4.6C448.09,41.43,446.85,40.39,444.92,40.39 M435.12,33.16c-1.48,0-2.13,0.94-2.13,1.98
		c0,1.04,0.84,1.93,2.13,1.93h13.61c1.24,0,2.08-0.89,2.08-1.93c0-1.04-0.69-1.98-2.08-1.98H435.12z M439.68,23.91
		c0-1.48,1.19-2.48,2.57-2.48c1.48,0,2.62,0.99,2.62,2.48c0,1.58-1.14,2.52-2.62,2.52C440.86,26.43,439.68,25.49,439.68,23.91
		 M435.52,23.91c0,3.81,3.07,6.48,6.73,6.48c3.66,0,6.78-2.67,6.78-6.48c0-3.71-3.12-6.38-6.78-6.38
		C438.59,17.52,435.52,20.19,435.52,23.91 M416.02,41.03c0-1.49,1.14-2.43,2.57-2.43c1.44,0,2.57,0.94,2.57,2.43
		c0,1.53-1.14,2.43-2.57,2.43C417.16,43.46,416.02,42.57,416.02,41.03 M411.81,41.03c0,3.71,3.07,6.29,6.78,6.29
		c3.61,0,6.73-2.58,6.73-6.29c0-3.66-3.12-6.24-6.73-6.24C414.88,34.8,411.81,37.37,411.81,41.03 M422.01,32.22
		c0,1.29,0.89,2.13,2.13,2.13c1.14,0,2.08-0.84,2.08-2.13v-4.31c0-0.69,0.45-1.09,1.24-1.09h1.29c1.24,0,2.03-0.84,2.03-1.98
		c0-0.99-0.55-1.93-2.03-1.93h-1.29c-0.89,0-1.24-0.49-1.24-1.34v-2.47c0-0.45-0.25-2.03-2.08-2.08c-1.24,0-2.13,0.79-2.13,2.08
		V32.22z M416.07,29.55c0.74,0.84,2.18,0.79,2.97-0.05c0.79-0.79,0.74-2.43-0.1-3.07c-2.67-1.98-5.15-3.07-4.9-7.03
		c0.1-1.19-0.89-2.08-2.08-2.08c-1.14,0-2.18,0.89-2.03,2.08c0.2,4.01-2.82,5.44-5.15,7.37c-0.84,0.69-0.99,1.93-0.2,2.87
		c0.69,0.69,2.08,1.14,3.12,0.2c0.79-0.79,1.93-1.98,3.07-3.07c1.04-0.99,1.73-0.84,2.72,0.05
		C414.34,27.72,415.03,28.51,416.07,29.55 M400.08,19.06c0-1.24-0.74-2.08-2.03-2.08c-1.93,0.05-2.08,1.63-2.08,2.08v13.12
		c0,1.29,0.94,2.13,2.08,2.13c1.24,0,2.03-0.84,2.03-2.13V19.06z M393.79,19.15c0-1.24-0.64-2.13-1.88-2.13
		c-1.93,0.1-1.98,1.68-1.98,2.13v1.34c0,1.04-0.3,1.49-1.39,1.49h-0.94c-1.34,0-1.93,0.94-1.93,1.93c0,1.19,0.79,1.98,1.93,1.98
		h0.94c0.99,0,1.39,0.25,1.39,1.43v4.75c0,1.24,0.74,2.08,1.98,2.08c1.19,0,1.88-0.84,1.88-2.08V19.15z M383.9,29.55
		c0.74,0.84,2.18,0.79,2.97-0.05c0.79-0.79,0.74-2.43-0.1-3.07c-2.67-1.98-5.15-3.07-4.9-7.03c0.1-1.19-0.89-2.08-2.08-2.08
		c-1.14,0-2.18,0.89-2.03,2.08c0.2,4.01-2.82,5.44-5.15,7.37c-0.84,0.69-0.99,1.93-0.2,2.87c0.69,0.69,2.08,1.14,3.12,0.2
		c0.79-0.79,1.93-1.98,3.07-3.07c1.04-0.99,1.73-0.84,2.72,0.05C382.16,27.72,382.85,28.51,383.9,29.55 M343.46,41.38v5.99
		c0,1.93,1.44,3.07,3.17,3.07h8.12c1.19,0,2.08-0.74,2.08-2.03c0-1.14-0.89-1.93-2.08-1.93h-5.25c-1.34,0-1.83-0.99-1.83-1.93v-3.17
		c0-1.19-0.94-2.08-2.08-2.08C344.35,39.3,343.46,40.19,343.46,41.38 M343.06,33.16c-1.49,0-2.13,0.94-2.13,1.98
		c0,1.04,0.84,1.93,2.13,1.93h13.61c1.24,0,2.08-0.89,2.08-1.93c0-1.04-0.69-1.98-2.08-1.98H343.06z M343.16,20v7.08
		c0,1.98,1.44,3.12,3.17,3.12h8.22c1.19,0,2.13-0.84,2.13-2.03c0-1.24-0.94-1.93-2.13-1.93h-5.35c-1.34,0-1.83-0.89-1.83-1.98V20
		c0-1.14-0.94-1.98-2.08-1.98C344.05,18.02,343.16,18.86,343.16,20 M336.48,19.01c0-1.24-0.79-2.08-2.03-2.08
		c-1.83,0.05-2.18,1.63-2.18,2.08v13.02c0,1.29,0.99,2.13,2.18,2.13c1.19,0,2.03-0.84,2.03-2.13V19.01z M319.6,23.86
		c0-1.49,1.19-2.47,2.57-2.47c1.48,0,2.62,0.99,2.62,2.47c0,1.58-1.14,2.52-2.62,2.52C320.79,26.38,319.6,25.44,319.6,23.86
		 M315.44,23.86c0,3.81,3.07,6.48,6.73,6.48c3.66,0,6.78-2.67,6.78-6.48c0-3.71-3.12-6.39-6.78-6.39
		C318.51,17.47,315.44,20.15,315.44,23.86 M304.45,32.22c0,1.29,0.89,2.13,2.13,2.13c1.14,0,2.08-0.84,2.08-2.13v-4.31
		c0-0.69,0.45-1.09,1.24-1.09h1.29c1.24,0,2.03-0.84,2.03-1.98c0-0.99-0.55-1.93-2.03-1.93h-1.29c-0.89,0-1.24-0.49-1.24-1.34v-2.47
		c0-0.45-0.25-2.03-2.08-2.08c-1.24,0-2.13,0.79-2.13,2.08V32.22z M291.63,23.86c0-1.49,1.19-2.47,2.57-2.47
		c1.48,0,2.62,0.99,2.62,2.47c0,1.58-1.14,2.52-2.62,2.52C292.82,26.38,291.63,25.44,291.63,23.86 M287.48,23.86
		c0,3.81,3.07,6.48,6.73,6.48c3.66,0,6.78-2.67,6.78-6.48c0-3.71-3.12-6.39-6.78-6.39C290.55,17.47,287.48,20.15,287.48,23.86"/>
</g>
<g>
	<path class="st1" d="M12.3,24.59C5.52,24.59,0,19.08,0,12.3C0,5.52,5.52,0,12.3,0v6.41c-3.24,0-5.88,2.64-5.88,5.88
		c0,3.24,2.64,5.88,5.88,5.88V24.59z"/>
</g>
<g>
	<path class="st1" d="M24.59,24.59c-6.78,0-12.3-5.52-12.3-12.29C12.3,5.52,17.81,0,24.59,0v6.41c-3.24,0-5.88,2.64-5.88,5.88
		c0,3.24,2.64,5.88,5.88,5.88V24.59z"/>
</g>
<g>
	<path class="st1" d="M674.2,55.53v-6.41c3.24,0,5.88-2.64,5.88-5.88c0-3.24-2.64-5.88-5.88-5.88v-6.41c6.78,0,12.3,5.51,12.3,12.29
		C686.5,50.01,680.98,55.53,674.2,55.53z"/>
</g>
<g>
	<path class="st1" d="M661.91,55.53v-6.41c3.24,0,5.88-2.64,5.88-5.88c0-3.24-2.64-5.88-5.88-5.88v-6.41
		c6.78,0,12.3,5.51,12.3,12.29C674.2,50.01,668.69,55.53,661.91,55.53z"/>
</g>
</svg>
