<?xml version="1.0" encoding="utf-8"?>
<!-- Generator: Adobe Illustrator 23.0.1, SVG Export Plug-In . SVG Version: 6.00 Build 0)  -->
<svg version="1.1" id="레이어_1" xmlns="http://www.w3.org/2000/svg" xmlns:xlink="http://www.w3.org/1999/xlink" x="0px"
	 y="0px" viewBox="0 0 274.73 69.28" style="enable-background:new 0 0 274.73 69.28;" xml:space="preserve">
<style type="text/css">
	.st0{fill:#003CA6;}
	.st1{fill:#FFCD00;}
</style>
<g>
	<g>
		<path class="st0" d="M32.69,24.3c0,0.71-0.43,1.3-1.3,1.3c-0.77,0-1.3-0.49-1.3-1.3v-0.65c0-0.56-0.28-0.86-0.8-0.86h-2.16
			c-0.86,0-1.27-0.59-1.27-1.17c0-0.68,0.52-1.2,1.27-1.2h8.55c0.77,0,1.3,0.52,1.3,1.2c0,0.59-0.43,1.17-1.3,1.17h-2.19
			c-0.52,0-0.8,0.34-0.8,0.9V24.3z M31.49,10.91c2.28,0,4.23,1.67,4.23,3.98c0,2.38-1.94,4.04-4.23,4.04c-2.28,0-4.2-1.67-4.2-4.04
			C27.29,12.57,29.2,10.91,31.49,10.91z M31.49,16.46c0.93,0,1.64-0.59,1.64-1.57c0-0.93-0.71-1.54-1.64-1.54
			c-0.86,0-1.6,0.62-1.6,1.54C29.88,15.88,30.62,16.46,31.49,16.46z"/>
	</g>
	<g>
		<path class="st0" d="M47.29,9.55v2.9c0,1.17-0.9,1.91-1.98,1.91h-2.19c-0.77,0-0.86,0.43-0.86,0.77v0.22
			c0,0.43,0.06,0.99,0.96,0.99h3.18c0.74,0,1.27,0.49,1.27,1.27c0,0.74-0.52,1.2-1.27,1.2h-4.82c-1.08,0-1.98-0.77-1.98-1.94v-2.93
			c0-1.17,0.93-2.01,2.1-2.01h2.1c0.74,0,0.93-0.4,0.93-0.71v-0.28c0-0.4-0.12-0.83-1.02-0.83h-2.72c-0.74,0-1.3-0.49-1.3-1.27
			c0-0.71,0.56-1.23,1.3-1.23h4.32C46.52,7.61,47.29,8.28,47.29,9.55z M52.11,19.95c0,0.8-0.52,1.33-1.27,1.33
			c-0.74,0-1.36-0.52-1.36-1.33v-8.12c0-0.28,0.22-1.27,1.36-1.3c0.77,0,1.27,0.52,1.27,1.3V19.95z"/>
	</g>
	<g>
		<path class="st0" d="M61.28,19.18c-0.71,0-1.23-0.56-1.23-1.27v-2.59c0-0.77-0.43-1.27-1.17-1.27h-3.12
			c-0.8,0-1.33-0.49-1.33-1.23c0-0.77,0.52-1.23,1.33-1.23h4.91c1.08,0,1.94,0.65,1.94,1.94v4.38
			C62.6,18.63,62.02,19.18,61.28,19.18z M64.7,11.9c0-0.8,0.56-1.3,1.33-1.3c1.14,0.03,1.3,1.02,1.3,1.3v1.54
			c0,0.52,0.22,0.83,0.77,0.83h0.8c0.93,0,1.27,0.59,1.27,1.2c0,0.71-0.49,1.23-1.27,1.23h-0.8c-0.49,0-0.77,0.25-0.77,0.68v2.69
			c0,0.8-0.59,1.33-1.3,1.33c-0.77,0-1.33-0.52-1.33-1.33V11.9z"/>
	</g>
	<g>
		<path class="st0" d="M81.93,10.88c2.28,0,4.23,1.67,4.23,3.98c0,2.38-1.94,4.04-4.23,4.04c-2.28,0-4.2-1.67-4.2-4.04
			C77.73,12.54,79.64,10.88,81.93,10.88z M81.93,16.43c0.93,0,1.64-0.59,1.64-1.57c0-0.93-0.71-1.54-1.64-1.54
			c-0.86,0-1.61,0.62-1.61,1.54C80.32,15.85,81.06,16.43,81.93,16.43z M88.32,11.9c0-0.8,0.56-1.3,1.33-1.3
			c1.14,0.03,1.3,1.02,1.3,1.3v1.54c0,0.52,0.22,0.83,0.77,0.83h0.8c0.93,0,1.27,0.59,1.27,1.2c0,0.71-0.49,1.23-1.27,1.23h-0.8
			c-0.49,0-0.77,0.25-0.77,0.68v2.69c0,0.8-0.59,1.33-1.3,1.33c-0.77,0-1.33-0.52-1.33-1.33V11.9z"/>
	</g>
	<g>
		<path class="st0" d="M99.37,10.88c2.28,0,4.23,1.67,4.23,3.98c0,2.38-1.94,4.04-4.23,4.04c-2.28,0-4.2-1.67-4.2-4.04
			C95.17,12.54,97.08,10.88,99.37,10.88z M99.37,16.43c0.93,0,1.64-0.59,1.64-1.57c0-0.93-0.71-1.54-1.64-1.54
			c-0.86,0-1.61,0.62-1.61,1.54C97.76,15.85,98.5,16.43,99.37,16.43z M108.29,19.95c0,0.8-0.52,1.33-1.27,1.33
			c-0.74,0-1.36-0.52-1.36-1.33v-8.12c0-0.28,0.22-1.27,1.36-1.3c0.77,0,1.27,0.52,1.27,1.3V19.95z"/>
	</g>
	<g>
		<path class="st0" d="M120.88,20.66c0.86,0,1.3,0.59,1.3,1.23c0,0.65-0.52,1.2-1.3,1.2h-8.49c-0.8,0-1.33-0.56-1.33-1.2
			c0-0.65,0.4-1.23,1.33-1.23H120.88z M120.36,9.55v2.9c0,1.17-0.9,1.91-1.98,1.91h-2.19c-0.77,0-0.86,0.43-0.86,0.77v0.22
			c0,0.43,0.06,0.99,0.96,0.99h3.18c0.74,0,1.27,0.49,1.27,1.27c0,0.74-0.52,1.2-1.27,1.2h-4.82c-1.08,0-1.98-0.77-1.98-1.94v-2.93
			c0-1.17,0.93-2.01,2.1-2.01h2.1c0.74,0,0.93-0.4,0.93-0.71v-0.28c0-0.4-0.12-0.83-1.02-0.83h-2.72c-0.74,0-1.3-0.49-1.3-1.27
			c0-0.71,0.56-1.23,1.3-1.23h4.32C119.59,7.61,120.36,8.28,120.36,9.55z M120.48,27.08v2.87c0,1.14-0.9,1.88-1.98,1.88h-2.1
			c-0.77,0-0.86,0.4-0.86,0.77v0.25c0,0.4,0.06,0.86,0.96,0.86h2.93c0.74,0,1.27,0.46,1.27,1.23c0,0.71-0.52,1.27-1.27,1.27h-4.57
			c-1.08,0-1.98-0.8-1.98-1.98V31.4c0-1.17,0.93-2.01,2.1-2.01H117c0.74,0,0.93-0.37,0.93-0.71v-0.25c0-0.37-0.12-0.83-1.02-0.83
			h-2.62c-0.74,0-1.3-0.46-1.3-1.23c0-0.74,0.56-1.2,1.3-1.2h4.23C119.71,25.17,120.48,25.82,120.48,27.08z"/>
	</g>
	<g>
		<path class="st0" d="M134.16,32.36c-1.17,0-1.98-0.77-1.98-1.91v-3.43c0-1.14,0.8-1.91,1.98-1.91h0.8
			c-0.15-0.22-0.22-0.46-0.22-0.8v-0.65c0-0.56-0.28-0.86-0.8-0.86h-2.16c-0.86,0-1.27-0.59-1.27-1.17c0-0.68,0.52-1.2,1.27-1.2
			h8.55c0.77,0,1.3,0.52,1.3,1.2c0,0.59-0.43,1.17-1.3,1.17h-2.19c-0.52,0-0.8,0.34-0.8,0.9v0.62c0,0.31-0.09,0.59-0.25,0.8h1.11
			c1.17,0,1.94,0.77,1.94,1.91v3.43c0,1.14-0.77,1.91-1.94,1.91H134.16z M132.12,18.78c-0.77,0-1.3-0.49-1.3-1.23
			c0-0.77,0.52-1.2,1.3-1.2h0.37c0.31,0,0.46-0.15,0.46-0.56v-1.51c0-0.43-0.12-0.65-0.46-0.65h-0.31c-0.74,0-1.27-0.43-1.27-1.2
			c0-0.71,0.52-1.17,1.23-1.2h7.81c0.74,0,1.27,0.49,1.27,1.2c0,0.77-0.52,1.2-1.27,1.2h-0.22c-0.28,0-0.59,0.19-0.59,0.59v1.57
			c0,0.4,0.12,0.56,0.49,0.56h0.4c0.68,0,1.27,0.43,1.27,1.2c0,0.74-0.56,1.23-1.27,1.23H132.12z M134.81,29.06
			c0,0.52,0.09,0.9,0.71,0.9h1.17c0.65,0,0.83-0.37,0.83-0.9v-0.77c0-0.49-0.19-0.77-0.86-0.77h-1.08c-0.59,0-0.77,0.34-0.77,0.8
			V29.06z M136.88,14.4c0-0.71-0.37-0.77-0.71-0.77h-0.19c-0.34,0-0.71,0.09-0.71,0.74v1.39c0,0.43,0.31,0.62,0.71,0.62h0.19
			c0.37,0,0.71-0.15,0.71-0.65V14.4z"/>
	</g>
	<g>
		<path class="st0" d="M153.61,20.66c0.86,0,1.3,0.59,1.3,1.23c0,0.65-0.52,1.2-1.3,1.2h-8.49c-0.8,0-1.33-0.56-1.33-1.2
			c0-0.65,0.4-1.23,1.33-1.23H153.61z M149.56,10.91c2.28,0,4.23,1.67,4.23,3.98c0,2.38-1.94,4.04-4.23,4.04
			c-2.28,0-4.2-1.67-4.2-4.04C145.36,12.57,147.28,10.91,149.56,10.91z M149.56,16.46c0.93,0,1.64-0.59,1.64-1.57
			c0-0.93-0.71-1.54-1.64-1.54c-0.86,0-1.61,0.62-1.61,1.54C147.96,15.88,148.7,16.46,149.56,16.46z"/>
	</g>
	<g>
		<path class="st0" d="M159.5,18.93c-1.17,0-1.98-0.8-1.98-1.98v-3.83c0-1.14,0.8-1.91,1.98-1.91h3.95c1.14,0,1.95,0.77,1.95,1.91
			v3.83c0,1.17-0.8,1.98-1.95,1.98H159.5z M160.09,15.51c0,0.56,0.06,0.93,0.65,0.93h1.3c0.65,0,0.77-0.37,0.77-0.93v-1.02
			c0-0.43-0.12-0.83-0.8-0.83h-1.17c-0.59,0-0.74,0.43-0.74,0.83V15.51z M164.1,21.77c0.71,0,1.3,0.56,1.3,1.3v1.98
			c0,0.59,0.31,1.2,1.14,1.2h3.27c0.74,0,1.3,0.49,1.3,1.2c0,0.8-0.56,1.27-1.3,1.27h-5.06c-1.08,0-1.98-0.71-1.98-1.91v-3.74
			C162.77,22.33,163.33,21.77,164.1,21.77z M171.26,20.08c0,0.8-0.53,1.33-1.3,1.33c-0.68,0-1.27-0.52-1.27-1.33v-1.05
			c0-0.46-0.37-0.65-0.71-0.65h-0.74c-0.8,0-1.3-0.43-1.3-1.11c0-0.68,0.34-1.14,1.3-1.14h0.74c0.43,0,0.71-0.19,0.71-0.65v-0.62
			c0-0.59-0.28-0.71-0.71-0.71h-0.74c-0.8,0-1.3-0.46-1.3-1.14s0.34-1.14,1.3-1.14h0.74c0.34,0,0.71-0.22,0.71-0.68v-0.37
			c0-0.28,0.12-1.23,1.27-1.27c0.8,0,1.3,0.49,1.3,1.27V20.08z"/>
	</g>
</g>
<g>
	<g>
		<path class="st0" d="M30.07,43.94c2.28,0,4.23,1.67,4.23,3.98c0,2.38-1.94,4.04-4.23,4.04c-2.28,0-4.2-1.67-4.2-4.04
			C25.87,45.61,27.78,43.94,30.07,43.94z M30.07,49.5c0.93,0,1.64-0.59,1.64-1.57c0-0.93-0.71-1.54-1.64-1.54
			c-0.86,0-1.6,0.62-1.6,1.54C28.46,48.91,29.2,49.5,30.07,49.5z M36.46,44.96c0-0.8,0.56-1.3,1.33-1.3c1.14,0.03,1.3,1.02,1.3,1.3
			v1.54c0,0.52,0.22,0.83,0.77,0.83h0.8c0.93,0,1.27,0.59,1.27,1.2c0,0.71-0.49,1.24-1.27,1.24h-0.8c-0.49,0-0.77,0.25-0.77,0.68
			v2.69c0,0.8-0.59,1.33-1.3,1.33c-0.77,0-1.33-0.52-1.33-1.33V44.96z"/>
	</g>
	<g>
		<path class="st0" d="M47.51,43.94c2.28,0,4.23,1.67,4.23,3.98c0,2.38-1.94,4.04-4.23,4.04c-2.28,0-4.2-1.67-4.2-4.04
			C43.31,45.61,45.22,43.94,47.51,43.94z M47.51,49.5c0.93,0,1.64-0.59,1.64-1.57c0-0.93-0.71-1.54-1.64-1.54
			c-0.86,0-1.61,0.62-1.61,1.54C45.9,48.91,46.64,49.5,47.51,49.5z M56.43,53.01c0,0.8-0.52,1.33-1.27,1.33
			c-0.74,0-1.36-0.53-1.36-1.33V44.9c0-0.28,0.22-1.27,1.36-1.3c0.77,0,1.27,0.52,1.27,1.3V53.01z"/>
	</g>
	<g>
		<path class="st0" d="M69.02,53.72c0.86,0,1.3,0.59,1.3,1.23c0,0.65-0.52,1.2-1.3,1.2h-8.49c-0.8,0-1.33-0.56-1.33-1.2
			c0-0.65,0.4-1.23,1.33-1.23H69.02z M61.92,44.28c0.71,0,1.3,0.52,1.3,1.23v2.65c0,0.68,0.31,1.23,1.14,1.23h3.33
			c0.74,0,1.33,0.43,1.33,1.2c0,0.74-0.59,1.27-1.33,1.27h-5.12c-1.08,0-1.98-0.71-1.98-1.94v-4.41
			C60.6,44.8,61.15,44.28,61.92,44.28z M62.11,57.55c0.71,0,1.3,0.56,1.3,1.3v1.98c0,0.59,0.31,1.2,1.14,1.2h3.27
			c0.74,0,1.3,0.49,1.3,1.2c0,0.8-0.56,1.27-1.3,1.27h-5.06c-1.08,0-1.98-0.71-1.98-1.91v-3.73C60.78,58.11,61.34,57.55,62.11,57.55
			z"/>
	</g>
	<g>
		<path class="st0" d="M84.4,49.77c-0.62-0.56-1.05-0.65-1.7-0.03c-0.71,0.68-1.42,1.42-1.91,1.91c-0.65,0.59-1.51,0.31-1.94-0.12
			c-0.49-0.59-0.4-1.36,0.12-1.79c1.45-1.2,3.33-2.1,3.21-4.6c-0.09-0.74,0.56-1.3,1.27-1.3c0.74,0,1.36,0.56,1.3,1.3
			c-0.15,2.47,1.39,3.15,3.06,4.38c0.52,0.4,0.56,1.42,0.06,1.91C87.36,51.96,86.47,52,86,51.47C85.35,50.82,84.92,50.33,84.4,49.77
			z M92.18,53.04c0,0.77-0.43,1.3-1.17,1.3c-0.77,0-1.23-0.53-1.23-1.3v-2.96c0-0.74-0.25-0.9-0.86-0.9h-0.59
			c-0.71,0-1.2-0.49-1.2-1.23c0-0.62,0.37-1.2,1.2-1.2h0.59c0.68,0,0.86-0.28,0.86-0.93v-0.83c0-0.28,0.03-1.27,1.23-1.33
			c0.77,0,1.17,0.56,1.17,1.33V53.04z M96.1,53.11c0,0.8-0.49,1.33-1.27,1.33c-0.71,0-1.3-0.53-1.3-1.33v-8.18
			c0-0.28,0.09-1.27,1.3-1.3c0.8,0,1.27,0.52,1.27,1.3V53.11z"/>
	</g>
	<g>
		<path class="st0" d="M104.46,49.77c-0.62-0.56-1.05-0.65-1.7-0.03c-0.71,0.68-1.42,1.42-1.91,1.91c-0.65,0.59-1.51,0.31-1.94-0.12
			c-0.49-0.59-0.4-1.36,0.12-1.79c1.45-1.2,3.33-2.1,3.21-4.6c-0.09-0.74,0.56-1.3,1.27-1.3c0.74,0,1.36,0.56,1.3,1.3
			c-0.15,2.47,1.39,3.15,3.06,4.38c0.52,0.4,0.56,1.42,0.06,1.91c-0.49,0.53-1.39,0.56-1.85,0.03
			C105.42,50.82,104.99,50.33,104.46,49.77z M107.64,54.74c2.25,0,4.2,1.6,4.2,3.89c0,2.32-1.94,3.92-4.2,3.92
			c-2.32,0-4.23-1.61-4.23-3.92C103.41,56.35,105.33,54.74,107.64,54.74z M107.64,60.14c0.89,0,1.6-0.56,1.6-1.51
			c0-0.93-0.71-1.51-1.6-1.51c-0.9,0-1.61,0.59-1.61,1.51C106.04,59.59,106.75,60.14,107.64,60.14z M109.77,44.96
			c0-0.8,0.56-1.3,1.33-1.3c1.14,0.03,1.3,1.02,1.3,1.3v1.54c0,0.52,0.22,0.83,0.77,0.83h0.8c0.93,0,1.27,0.59,1.27,1.2
			c0,0.71-0.49,1.24-1.27,1.24h-0.8c-0.49,0-0.77,0.25-0.77,0.68v2.69c0,0.8-0.59,1.33-1.3,1.33c-0.77,0-1.33-0.52-1.33-1.33V44.96z
			"/>
	</g>
	<g>
		<path class="st0" d="M126.44,53.72c0.86,0,1.3,0.59,1.3,1.23c0,0.65-0.52,1.2-1.3,1.2h-8.49c-0.8,0-1.33-0.56-1.33-1.2
			c0-0.65,0.4-1.23,1.33-1.23H126.44z M122.4,43.97c2.28,0,4.23,1.67,4.23,3.98c0,2.38-1.94,4.04-4.23,4.04
			c-2.28,0-4.2-1.67-4.2-4.04C118.2,45.64,120.11,43.97,122.4,43.97z M126.04,60.14v2.87c0,1.14-0.89,1.88-1.98,1.88h-2.1
			c-0.77,0-0.86,0.4-0.86,0.77v0.25c0,0.4,0.06,0.86,0.96,0.86h2.93c0.74,0,1.27,0.46,1.27,1.24c0,0.71-0.52,1.27-1.27,1.27h-4.57
			c-1.08,0-1.98-0.8-1.98-1.98v-2.84c0-1.17,0.93-2.01,2.1-2.01h2.01c0.74,0,0.93-0.37,0.93-0.71V61.5c0-0.37-0.12-0.83-1.02-0.83
			h-2.62c-0.74,0-1.3-0.46-1.3-1.24c0-0.74,0.56-1.2,1.3-1.2h4.23C125.27,58.23,126.04,58.88,126.04,60.14z M122.4,49.53
			c0.93,0,1.64-0.59,1.64-1.57c0-0.93-0.71-1.54-1.64-1.54c-0.86,0-1.61,0.62-1.61,1.54C120.79,48.94,121.53,49.53,122.4,49.53z"/>
	</g>
	<g>
		<path class="st0" d="M139.71,65.42c-1.17,0-1.98-0.77-1.98-1.91v-3.43c0-1.14,0.8-1.91,1.98-1.91h0.8
			c-0.15-0.22-0.22-0.46-0.22-0.8v-0.65c0-0.56-0.28-0.86-0.8-0.86h-2.16c-0.86,0-1.27-0.59-1.27-1.17c0-0.68,0.52-1.2,1.27-1.2
			h8.55c0.77,0,1.3,0.52,1.3,1.2c0,0.59-0.43,1.17-1.3,1.17h-2.19c-0.52,0-0.8,0.34-0.8,0.89v0.62c0,0.31-0.09,0.59-0.25,0.8h1.11
			c1.17,0,1.94,0.77,1.94,1.91v3.43c0,1.14-0.77,1.91-1.94,1.91H139.71z M137.68,51.84c-0.77,0-1.3-0.49-1.3-1.23
			c0-0.77,0.52-1.2,1.3-1.2h0.37c0.31,0,0.46-0.15,0.46-0.56v-1.51c0-0.43-0.12-0.65-0.46-0.65h-0.31c-0.74,0-1.27-0.43-1.27-1.2
			c0-0.71,0.52-1.17,1.23-1.2h7.81c0.74,0,1.27,0.49,1.27,1.2c0,0.77-0.52,1.2-1.27,1.2h-0.22c-0.28,0-0.59,0.19-0.59,0.59v1.57
			c0,0.4,0.12,0.56,0.49,0.56h0.4c0.68,0,1.27,0.43,1.27,1.2c0,0.74-0.56,1.23-1.27,1.23H137.68z M140.36,62.12
			c0,0.53,0.09,0.9,0.71,0.9h1.17c0.65,0,0.83-0.37,0.83-0.9v-0.77c0-0.49-0.18-0.77-0.86-0.77h-1.08c-0.59,0-0.77,0.34-0.77,0.8
			V62.12z M142.43,47.46c0-0.71-0.37-0.77-0.71-0.77h-0.19c-0.34,0-0.71,0.09-0.71,0.74v1.39c0,0.43,0.31,0.62,0.71,0.62h0.19
			c0.37,0,0.71-0.15,0.71-0.65V47.46z"/>
	</g>
	<g>
		<path class="st0" d="M159.16,53.72c0.86,0,1.3,0.59,1.3,1.23c0,0.65-0.52,1.2-1.3,1.2h-8.49c-0.8,0-1.33-0.56-1.33-1.2
			c0-0.65,0.4-1.23,1.33-1.23H159.16z M155.12,43.97c2.28,0,4.23,1.67,4.23,3.98c0,2.38-1.94,4.04-4.23,4.04
			c-2.28,0-4.2-1.67-4.2-4.04C150.92,45.64,152.83,43.97,155.12,43.97z M158.76,60.14v2.87c0,1.14-0.9,1.88-1.98,1.88h-2.1
			c-0.77,0-0.86,0.4-0.86,0.77v0.25c0,0.4,0.06,0.86,0.96,0.86h2.93c0.74,0,1.27,0.46,1.27,1.24c0,0.71-0.52,1.27-1.27,1.27h-4.57
			c-1.08,0-1.98-0.8-1.98-1.98v-2.84c0-1.17,0.93-2.01,2.1-2.01h2.01c0.74,0,0.93-0.37,0.93-0.71V61.5c0-0.37-0.12-0.83-1.02-0.83
			h-2.62c-0.74,0-1.3-0.46-1.3-1.24c0-0.74,0.56-1.2,1.3-1.2h4.23C157.99,58.23,158.76,58.88,158.76,60.14z M155.12,49.53
			c0.93,0,1.64-0.59,1.64-1.57c0-0.93-0.71-1.54-1.64-1.54c-0.86,0-1.61,0.62-1.61,1.54C153.51,48.94,154.25,49.53,155.12,49.53z"/>
	</g>
	<g>
		<path class="st0" d="M175.62,57.37c0,0.71-0.43,1.3-1.3,1.3c-0.77,0-1.3-0.49-1.3-1.3v-0.65c0-0.56-0.28-0.86-0.8-0.86h-2.16
			c-0.86,0-1.27-0.59-1.27-1.17c0-0.68,0.53-1.2,1.27-1.2h8.55c0.77,0,1.3,0.52,1.3,1.2c0,0.59-0.43,1.17-1.3,1.17h-2.19
			c-0.53,0-0.8,0.34-0.8,0.89V57.37z M175.31,49.77c-0.62-0.56-1.05-0.65-1.7-0.03c-0.71,0.68-1.42,1.42-1.91,1.91
			c-0.65,0.59-1.51,0.31-1.95-0.12c-0.49-0.59-0.4-1.36,0.12-1.79c1.45-1.2,3.33-2.1,3.21-4.6c-0.09-0.74,0.56-1.3,1.27-1.3
			c0.74,0,1.36,0.56,1.3,1.3c-0.15,2.47,1.39,3.15,3.06,4.38c0.52,0.4,0.56,1.42,0.06,1.91c-0.49,0.53-1.39,0.56-1.85,0.03
			C176.26,50.82,175.83,50.33,175.31,49.77z"/>
	</g>
	<g>
		<path class="st0" d="M192.44,43.94c2.28,0,4.23,1.67,4.23,3.98c0,2.38-1.95,4.04-4.23,4.04c-2.28,0-4.2-1.67-4.2-4.04
			C188.24,45.61,190.16,43.94,192.44,43.94z M199.2,60.85c-0.46-0.49-0.8-0.49-1.27,0.03c-0.59,0.62-1.3,0.99-1.85,0.99
			c-0.56,0-1.3-0.34-1.94-0.96c-0.46-0.46-0.68-0.49-1.17-0.03l-1.45,1.45c-0.49,0.49-1.39,0.43-1.85-0.09
			c-0.49-0.43-0.59-1.36,0.03-1.85c2.01-1.6,2.28-2.62,2.32-4.17c0-0.74,0.49-1.23,1.27-1.23c0.74,0,1.36,0.52,1.3,1.27
			c-0.06,1.57,0.09,2.07,0.9,2.69c0.19,0.15,0.71,0.18,0.96,0c0.62-0.53,1.05-1.05,0.99-2.75c-0.03-0.74,0.56-1.27,1.33-1.27
			c0.74,0,1.33,0.49,1.33,1.27c-0.03,2.28,0.8,2.78,2.16,4.08c0.49,0.46,0.49,1.33-0.03,1.85c-0.49,0.49-1.45,0.43-1.85-0.06
			L199.2,60.85z M192.44,49.5c0.93,0,1.64-0.59,1.64-1.57c0-0.93-0.71-1.54-1.64-1.54c-0.86,0-1.6,0.62-1.6,1.54
			C190.84,48.91,191.58,49.5,192.44,49.5z M201.36,53.01c0,0.8-0.52,1.33-1.27,1.33c-0.74,0-1.36-0.53-1.36-1.33V44.9
			c0-0.28,0.22-1.27,1.36-1.3c0.77,0,1.27,0.52,1.27,1.3V53.01z"/>
	</g>
	<g>
		<path class="st0" d="M213.8,53.72c0.86,0,1.3,0.59,1.3,1.23c0,0.65-0.53,1.2-1.3,1.2h-8.49c-0.8,0-1.33-0.56-1.33-1.2
			c0-0.65,0.4-1.23,1.33-1.23H213.8z M210.65,49.77c-0.62-0.56-1.05-0.65-1.7-0.03c-0.71,0.68-1.42,1.42-1.91,1.91
			c-0.65,0.59-1.51,0.31-1.95-0.12c-0.49-0.59-0.4-1.36,0.12-1.79c1.45-1.2,3.33-2.1,3.21-4.6c-0.09-0.74,0.56-1.3,1.27-1.3
			c0.74,0,1.36,0.56,1.3,1.3c-0.15,2.47,1.39,3.15,3.06,4.38c0.52,0.4,0.56,1.42,0.06,1.91c-0.49,0.53-1.39,0.56-1.85,0.03
			C211.61,50.82,211.18,50.33,210.65,49.77z M207.72,66.75c-1.2,0-1.98-0.74-1.98-1.91v-5.56c0-0.74,0.56-1.27,1.3-1.27
			c0.74,0,1.33,0.53,1.33,1.27v0.62c0,0.34,0.06,0.53,0.43,0.53h1.73c0.4-0.03,0.46-0.22,0.46-0.56v-0.68c0-0.71,0.52-1.3,1.3-1.3
			c0.71,0,1.3,0.59,1.3,1.3v5.62c0,1.17-0.77,1.95-1.95,1.95H207.72z M208.34,63.54c0,0.4,0,0.8,0.59,0.8h1.39
			c0.62,0,0.71-0.4,0.71-0.8v-0.25c0-0.34-0.09-0.68-0.74-0.68h-1.36c-0.53,0-0.59,0.37-0.59,0.68V63.54z"/>
	</g>
	<g>
		<path class="st0" d="M217.72,45.51c0-0.71,0.56-1.23,1.33-1.23c0.71,0,1.3,0.52,1.3,1.23v2.65c0,0.68,0.31,1.23,1.14,1.23h3.33
			c0.74,0,1.33,0.43,1.33,1.2c0,0.74-0.59,1.27-1.33,1.27h-5.12c-1.08,0-1.98-0.71-1.98-1.94V45.51z M230.22,53.01
			c0,0.8-0.52,1.33-1.27,1.33c-0.74,0-1.36-0.53-1.36-1.33V44.9c0-0.28,0.22-1.27,1.36-1.3c0.77,0,1.27,0.52,1.27,1.3V53.01z"/>
	</g>
	<g>
		<path class="st0" d="M235.44,51.84c-1.17,0-1.98-0.8-1.98-1.98v-3.64c0-1.17,0.8-1.94,1.98-1.94h4.88c0.74,0,1.3,0.49,1.3,1.27
			c0,0.74-0.56,1.2-1.3,1.2h-3.15c-0.74,0-1.08,0.46-1.08,1.05v0.37c0,0.74,0.28,1.17,1.02,1.17h3.33c0.74,0,1.3,0.46,1.3,1.23
			c0,0.74-0.56,1.2-1.3,1.27H235.44z M243.74,44.96c0-0.8,0.56-1.3,1.33-1.3c1.14,0.03,1.3,1.02,1.3,1.3v1.54
			c0,0.52,0.22,0.83,0.77,0.83h0.8c0.93,0,1.27,0.59,1.27,1.2c0,0.71-0.49,1.24-1.27,1.24h-0.8c-0.49,0-0.77,0.25-0.77,0.68v2.69
			c0,0.8-0.59,1.33-1.3,1.33c-0.77,0-1.33-0.52-1.33-1.33V44.96z"/>
	</g>
</g>
<g>
	<path class="st1" d="M7.67,15.34C3.44,15.34,0,11.9,0,7.67C0,3.44,3.44,0,7.67,0v4C5.65,4,4,5.65,4,7.67
		c0,2.02,1.65,3.67,3.67,3.67V15.34z"/>
</g>
<g>
	<path class="st1" d="M15.34,15.34c-4.23,0-7.67-3.44-7.67-7.67C7.67,3.44,11.11,0,15.34,0v4c-2.02,0-3.67,1.65-3.67,3.67
		c0,2.02,1.65,3.67,3.67,3.67V15.34z"/>
</g>
<g>
	<path class="st1" d="M267.06,67.69v-4c2.02,0,3.67-1.65,3.67-3.67c0-2.02-1.65-3.67-3.67-3.67v-4c4.23,0,7.67,3.44,7.67,7.67
		C274.73,64.25,271.29,67.69,267.06,67.69z"/>
</g>
<g>
	<path class="st1" d="M259.39,67.69v-4c2.02,0,3.67-1.65,3.67-3.67c0-2.02-1.65-3.67-3.67-3.67v-4c4.23,0,7.67,3.44,7.67,7.67
		C267.06,64.25,263.62,67.69,259.39,67.69z"/>
</g>
</svg>
