<?xml version="1.0" encoding="utf-8"?>
<!-- Generator: Adobe Illustrator 23.0.1, SVG Export Plug-In . SVG Version: 6.00 Build 0)  -->
<svg version="1.1" id="레이어_1" xmlns="http://www.w3.org/2000/svg" xmlns:xlink="http://www.w3.org/1999/xlink" x="0px"
	 y="0px" viewBox="0 0 172.5 38" style="enable-background:new 0 0 172.5 38;" xml:space="preserve">
<style type="text/css">
	.st0{fill:#FFCD00;}
	.st1{fill:#003CA6;}
</style>
<g>
	<path class="st0" d="M4.6,12.1c0-0.2,0.3-1.3,0.6-2.3c0.1-0.2,0-0.4-0.3-0.2c-0.7,0.8-1.5,1.7-1.7,1.7c-1.1,0.6-2.2-1.1-1-1.8
		L4.4,9c0.4-0.1,0.2-0.3-0.1-0.4C3.4,8.4,2.4,8.1,2.2,8c-1.1-0.6-0.1-2.5,1-1.8C3.3,6.3,4,7,4.7,7.7c0.2,0.2,0.6,0.3,0.4-0.2
		C4.9,6.5,4.6,5.5,4.6,5.4c0-1.3,2.1-1.3,2.1,0c0,0.2-0.3,1.2-0.5,2.1C6,7.9,6.4,7.9,6.6,7.7l1.6-1.5c1.1-0.6,2.1,1.2,1,1.8
		C9,8.1,7.9,8.4,7,8.6C6.7,8.6,6.5,8.9,7,9c0.9,0.3,1.9,0.6,2.1,0.6c1.2,0.7,0.1,2.4-1,1.8c-0.2,0-1-0.9-1.7-1.7
		C6.3,9.6,6,9.4,6.1,9.8c0.3,1,0.6,2.1,0.6,2.3C6.6,13.5,4.6,13.4,4.6,12.1z"/>
	<path class="st1" d="M20.6,21.2c0,0.7-0.5,1.3-1.3,1.3c-0.8,0-1.3-0.5-1.3-1.3v-1c0-0.7-0.1-1.3-1.1-1.3H14c-0.9,0-1.3-0.6-1.3-1.2
		c0-0.6,0.5-1.2,1.3-1.2h10.6c0.8,0,1.2,0.6,1.2,1.2c0,0.6-0.4,1.2-1.2,1.2h-3c-1,0-1.1,0.6-1.1,1.3V21.2z M15.4,8.6h-0.9
		c-0.7,0-1.2-0.5-1.2-1.2c0-0.7,0.5-1.2,1.2-1.2h2.9C17.9,6.2,18,6,18,5.4V3.9c0-0.7,0.6-1.2,1.3-1.2c0.7,0,1.3,0.5,1.3,1.2v1.5
		c0,0.6,0.1,0.8,0.6,0.8H24c0.7,0,1.3,0.5,1.3,1.2c0,0.7-0.5,1.2-1.3,1.2h-0.8c0.4,0.5,0.6,1.5,0.6,2.2c0,2.5-2.1,4.3-4.5,4.3
		c-2.5,0-4.5-1.8-4.5-4.3C14.8,9.9,15,9.2,15.4,8.6z M19.3,12.7c1.1,0,2.1-0.8,2.1-2c0-1.3-1-2.1-2.1-2.1c-1.2,0-2.2,0.8-2.2,2.1
		C17.1,11.9,18.2,12.7,19.3,12.7z"/>
	<path class="st1" d="M35.6,21.3c0,0.7-0.5,1.3-1.3,1.3c-0.8,0-1.3-0.5-1.3-1.3v-1c0-0.7-0.1-1.3-1.1-1.3h-2.1
		c-0.9,0-1.3-0.6-1.3-1.2c0-0.6,0.5-1.3,1.3-1.3h10.4c0.8,0,1.2,0.6,1.2,1.3c0,0.6-0.4,1.2-1.2,1.2h-3.5c-1,0-1.1,0.6-1.1,1.3V21.3z
		 M46,16.3c0,0.7-0.5,1.3-1.2,1.3c-0.8,0-1.3-0.6-1.3-1.3v-4.4c0-0.7-0.2-1.2-1.1-1.2H41c-0.7,0-1.1-0.3-1.2-0.9
		c-0.2,2.6-2.4,4.4-5,4.4c-2.7,0-5-2-5-4.7c0-2.8,2.3-4.7,5-4.7c2.7,0,4.9,1.9,5,4.5C40,8.7,40.4,8.4,41,8.4h1.3
		c1.1,0,1.1-0.6,1.1-1.3V5.6c0-0.3,0.2-1.2,1.3-1.3c0.8,0,1.2,0.5,1.2,1.3V16.3z M34.8,11.9c1.4,0,2.5-1,2.5-2.4s-1.1-2.4-2.5-2.4
		c-1.3,0-2.5,0.9-2.5,2.4S33.5,11.9,34.8,11.9z M37.3,21.8c0.7,0,1.3,0.5,1.3,1.3v2.7c0,0.8,0.3,1.8,1.7,1.8h4.6
		c0.7,0,1.3,0.5,1.3,1.2c0,0.8-0.5,1.2-1.3,1.2h-6.8c-1.1,0-2.1-0.8-2.1-2.1v-4.7C36.1,22.3,36.6,21.8,37.3,21.8z"/>
	<path class="st1" d="M50.6,19.3c-0.7,0-1.2-0.5-1.2-1.2s0.5-1.2,1.2-1.2h10.7c0.7,0,1.2,0.5,1.2,1.2s-0.5,1.2-1.2,1.2H50.6z
		 M59.5,14.6c-0.7,0-1.3-0.5-1.3-1.3V9.7c0-0.9-0.4-1.9-1.7-1.9h-4.2c-0.8,0-1.3-0.5-1.3-1.2s0.5-1.2,1.3-1.2h6.3
		c1.1,0,2.1,0.7,2.1,2.1v5.8C60.8,14.1,60.2,14.6,59.5,14.6z M53.4,30.7c-1.2,0-2.1-0.8-2.1-2.1v-4.4c0-1.2,0.8-2.1,2.1-2.1h5.2
		c1.3,0,2.1,0.8,2.1,2.1v4.4c0,1.2-0.8,2.1-2.1,2.1H53.4z M53.8,26.9c0,0.9,0.2,1.4,1.3,1.4h1.7c1.1,0,1.3-0.5,1.3-1.4v-1.1
		c0-0.8-0.2-1.3-1.4-1.3h-1.6c-1.1,0-1.3,0.5-1.3,1.3V26.9z"/>
	<path class="st1" d="M83.8,24.2v3.6c0,1.3-1,2-2.1,2h-3.2c-1,0-1.3,0.7-1.3,1.3v0.3c0,0.7,0.2,1.6,1.5,1.6h4.3
		c0.7,0,1.3,0.5,1.3,1.2c0,0.7-0.5,1.2-1.3,1.2h-6.2c-1.1,0-2.1-0.8-2.1-2.1v-3.6c0-1.3,1-2.2,2.2-2.2h3c1,0,1.3-0.6,1.3-1.3v-0.3
		c0-0.7-0.3-1.4-1.5-1.4H76c-0.7,0-1.3-0.5-1.3-1.2s0.5-1.2,1.3-1.2h2.4C78.2,22,78,21.6,78,21.2v-1c0-0.7-0.1-1.3-1.1-1.3H74
		c-0.9,0-1.3-0.6-1.3-1.2c0-0.6,0.5-1.2,1.3-1.2h10.6c0.8,0,1.2,0.6,1.2,1.2c0,0.6-0.4,1.2-1.2,1.2h-3c-1,0-1.1,0.6-1.1,1.3v1
		c0,0.4-0.2,0.7-0.4,0.9h1.4C82.9,22.2,83.8,22.9,83.8,24.2z M81.5,8.4c-0.6,0-0.7,0.5-0.7,0.8c0.2,0.8,1.5,1.6,3.7,3
		c0.5,0.3,0.7,1.2,0.2,1.8c-0.4,0.5-1.1,0.6-1.7,0.2l-2.4-1.9c-0.9-0.6-1.5-0.7-2.3,0c-0.8,0.6-1.6,1.3-2.5,1.9
		c-0.6,0.4-1.4,0.4-1.9-0.1c-0.5-0.5-0.5-1.4,0.1-1.8c1.9-1.1,3.6-2.2,3.7-3.1c0-0.3-0.1-0.8-0.7-0.8h-2c-0.7,0-1.2-0.4-1.2-1.1
		c0-0.8,0.5-1.2,1.2-1.2h2.4c0.5,0,0.6-0.3,0.6-0.8V4.1c0-0.7,0.6-1.2,1.3-1.2c0.7,0,1.3,0.5,1.3,1.2v1.2c0,0.6,0.1,0.8,0.6,0.8h2.5
		c0.7,0,1.3,0.4,1.3,1.2c0,0.7-0.5,1.1-1.3,1.1H81.5z"/>
	<path class="st1" d="M89.7,19.3c-0.7,0-1.2-0.5-1.2-1.2s0.5-1.2,1.2-1.2h10.7c0.7,0,1.2,0.5,1.2,1.2s-0.5,1.2-1.2,1.2H89.7z
		 M98.6,14.6c-0.7,0-1.3-0.5-1.3-1.3V9.7c0-0.9-0.4-1.9-1.7-1.9h-4.2c-0.8,0-1.3-0.5-1.3-1.2s0.5-1.2,1.3-1.2h6.3
		c1.1,0,2.1,0.7,2.1,2.1v5.8C99.9,14.1,99.4,14.6,98.6,14.6z M92.5,30.7c-1.2,0-2.1-0.8-2.1-2.1v-4.4c0-1.2,0.8-2.1,2.1-2.1h5.2
		c1.3,0,2.1,0.8,2.1,2.1v4.4c0,1.2-0.8,2.1-2.1,2.1H92.5z M92.9,26.9c0,0.9,0.2,1.4,1.3,1.4h1.7c1.1,0,1.3-0.5,1.3-1.4v-1.1
		c0-0.8-0.2-1.3-1.4-1.3h-1.6c-1.1,0-1.3,0.5-1.3,1.3V26.9z"/>
	<path class="st1" d="M109.3,4.7c2.7,0,5,2,5,4.7c0,2.8-2.3,4.7-5,4.7c-2.7,0-5-2-5-4.7C104.3,6.7,106.6,4.7,109.3,4.7z M109.3,11.9
		c1.4,0,2.5-1,2.5-2.4s-1.1-2.4-2.5-2.4c-1.3,0-2.5,0.9-2.5,2.4S108,11.9,109.3,11.9z M118.9,20.6v3.6c0,1.3-1,2-2.1,2h-3.2
		c-1,0-1.3,0.7-1.3,1.3v0.3c0,0.7,0.2,1.6,1.5,1.6h4.3c0.7,0,1.3,0.5,1.3,1.2c0,0.7-0.5,1.2-1.3,1.2h-6.2c-1.1,0-2.1-0.8-2.1-2.1
		v-3.6c0-1.3,1-2.2,2.2-2.2h3c1,0,1.3-0.6,1.3-1.3v-0.3c0-0.7-0.3-1.4-1.5-1.4h-3.8c-0.7,0-1.3-0.5-1.3-1.2s0.5-1.2,1.3-1.2h5.7
		C118.1,18.5,118.9,19.2,118.9,20.6z M117,5.6c0-0.8,0.5-1.3,1.3-1.3c1.1,0,1.3,1,1.3,1.3v10.5c0,0.7-0.5,1.3-1.3,1.3
		c-0.7,0-1.3-0.6-1.3-1.3V5.6z"/>
	<path class="st1" d="M135.5,4.7c2.7,0,5,2,5,4.7c0,2.8-2.3,4.7-5,4.7c-2.7,0-5-2-5-4.7C130.5,6.7,132.8,4.7,135.5,4.7z M135.5,11.9
		c1.4,0,2.5-1,2.5-2.4s-1.1-2.4-2.5-2.4c-1.3,0-2.5,0.9-2.5,2.4S134.2,11.9,135.5,11.9z M136.9,17.8c0.7,0,1.3,0.5,1.3,1.3v2.7
		c0,0.8,0.3,1.8,1.7,1.8h4.6c0.7,0,1.3,0.5,1.3,1.2c0,0.8-0.5,1.2-1.3,1.2h-6.8c-1.1,0-2.1-0.8-2.1-2.1v-4.7
		C135.6,18.4,136.2,17.8,136.9,17.8z M143.1,5.4c0-0.8,0.5-1.3,1.3-1.3c0.9,0,1.3,0.6,1.3,1.3v2.2c0,0.7,0.1,1.3,1.1,1.3h1.3
		c0.9,0,1.2,0.6,1.2,1.2c0,0.7-0.5,1.1-1.2,1.1h-1.3c-1,0-1.1,0.5-1.1,1.2v3.8c0,0.7-0.5,1.3-1.3,1.3c-0.7,0-1.3-0.6-1.3-1.3V5.4z"
		/>
	<path class="st1" d="M152.9,5.1c0.7,0,1.3,0.6,1.3,1.3v3.8c0,0.8,0.3,1.8,1.7,1.8h4.4c0.7,0,1.3,0.5,1.3,1.2c0,0.8-0.5,1.2-1.3,1.2
		h-6.6c-1.1,0-2.1-0.8-2.1-2.1V6.4C151.6,5.7,152.1,5.1,152.9,5.1z M170.6,16.3c0,0.7-0.5,1.3-1.2,1.3c-0.7,0-1.3-0.6-1.3-1.3v-3.8
		c0-0.6-0.2-1.1-1.1-1.1h-0.3c-0.8,0-1.1,0.5-1.1,1.1v3.6c0,0.7-0.5,1.3-1.2,1.3c-0.8,0-1.3-0.6-1.3-1.3V5.6c0-0.8,0.5-1.3,1.3-1.3
		c1.1,0,1.2,1,1.2,1.3v2.2c0,0.7,0.1,1.3,1.1,1.3h0.3c1,0,1.1-0.7,1.1-1.3V5.6c0-0.3,0.1-1.2,1.3-1.3c0.8,0,1.2,0.5,1.2,1.3V16.3z"
		/>
</g>
</svg>
